<svg xmlns="http://www.w3.org/2000/svg" xmlns:xlink="http://www.w3.org/1999/xlink" width="500" zoomAndPan="magnify" viewBox="0 0 375 374.999991" height="500" preserveAspectRatio="xMidYMid meet" version="1.0"><defs><g/><clipPath id="23aa984560"><path d="M 150 100.464844 L 223 100.464844 L 223 185 L 150 185 Z M 150 100.464844 " clip-rule="nonzero"/></clipPath><clipPath id="4a917e65e6"><path d="M 62.925781 131 L 119 131 L 119 247 L 62.925781 247 Z M 62.925781 131 " clip-rule="nonzero"/></clipPath></defs><rect x="-37.5" width="450" fill="#ffffff" y="-37.499999" height="449.999989" fill-opacity="1"/><rect x="-37.5" width="450" fill="#ffffff" y="-37.499999" height="449.999989" fill-opacity="1"/><path fill="#e5e5e5" d="M 151.394531 183.683594 L 221.5625 183.683594 L 221.5625 101.503906 L 151.394531 101.503906 Z M 151.394531 183.683594 " fill-opacity="1" fill-rule="nonzero"/><g clip-path="url(#23aa984560)"><path stroke-linecap="butt" transform="matrix(0.472626, 0, 0, 0.471156, 47.381685, 22.075524)" fill="none" stroke-linejoin="miter" d="M 220.074113 343.003373 L 368.538019 343.003373 L 368.538019 168.581947 L 220.074113 168.581947 Z M 220.074113 343.003373 " stroke="#434c9e" stroke-width="3.939" stroke-opacity="1" stroke-miterlimit="4"/></g><path fill="#434c9e" d="M 119.664062 184.628906 L 129.449219 145.621094 C 129.449219 145.621094 128.222656 138.796875 119.425781 136.605469 L 119.664062 135.382812 C 119.664062 135.382812 128.960938 137.578125 129.933594 132.457031 C 129.933594 132.457031 132.871094 126.367188 130.179688 122.21875 C 130.179688 122.21875 129.449219 121.488281 129.695312 119.539062 C 129.695312 119.539062 131.160156 114.664062 128.714844 112.226562 C 128.714844 112.226562 132.433594 111.808594 131.785156 108.570312 C 131.785156 108.570312 131.136719 106.625 127.246094 107.59375 C 127.246094 107.59375 121.136719 100.523438 113.0625 103.203125 C 113.0625 103.203125 104.015625 104.425781 103.53125 113.6875 C 103.53125 113.6875 100.59375 119.539062 104.261719 126.121094 L 109.152344 133.921875 L 111.351562 131.972656 L 111.84375 134.898438 L 114.53125 132.703125 L 113.308594 136.605469 C 113.308594 136.605469 101.824219 141.402344 101.011719 166.824219 C 101.007812 167.03125 100.996094 167.234375 100.992188 167.441406 C 100.347656 193.402344 106.707031 185.84375 106.707031 185.84375 L 119.664062 184.628906 " fill-opacity="1" fill-rule="nonzero"/><path fill="#434c9e" d="M 307.410156 253.6875 C 307.410156 253.6875 303.621094 258.148438 318.421875 261.578125 C 318.421875 261.578125 324.625 260.546875 316.019531 254.03125 L 317.046875 213.53125 C 317.046875 213.53125 320.492188 212.496094 321.179688 204.605469 C 321.179688 204.605469 327.375 196.027344 324.96875 179.207031 C 324.96875 179.207031 322.214844 167.539062 310.507812 164.105469 L 310.160156 162.046875 L 312.574219 158.960938 C 312.574219 158.960938 318.421875 160.675781 320.832031 153.121094 C 320.832031 153.121094 324.28125 154.84375 326.34375 155.183594 L 322.214844 146.257812 L 326.203125 134.660156 C 326.203125 134.660156 319.828125 126.457031 307.589844 125.796875 L 301.554688 135.277344 L 291.917969 134.929688 L 297.769531 139.054688 C 297.769531 139.054688 294.324219 141.457031 295.359375 144.886719 C 295.359375 144.886719 292.257812 144.886719 295.359375 149.691406 C 295.359375 149.691406 290.539062 157.929688 300.179688 163.078125 L 303.277344 162.734375 L 301.308594 163.992188 C 301.308594 163.992188 291.636719 163.785156 282.789062 179.785156 L 286.0625 186.757812 L 292.605469 184.355469 L 290.882812 207.007812 L 292.257812 208.035156 L 287.097656 223.480469 L 288.816406 232.058594 L 284.6875 233.78125 L 284.6875 248.535156 C 284.6875 248.535156 275.078125 254.90625 282.554688 255.4375 C 290.039062 255.972656 282.621094 254.714844 282.621094 254.714844 L 292.605469 251.964844 L 293.640625 248.878906 L 295.703125 247.503906 L 302.589844 220.394531 C 302.589844 220.394531 302.589844 237.898438 306.03125 247.503906 L 305 253.6875 L 307.410156 253.6875 " fill-opacity="1" fill-rule="nonzero"/><path fill="#434c9e" d="M 257.242188 144.171875 L 250.007812 154.113281 L 248.242188 217.761719 L 256.734375 218.960938 L 267.203125 194.363281 L 277.671875 217.472656 L 279.167969 147.402344 L 257.242188 144.171875 " fill-opacity="1" fill-rule="nonzero"/><path fill="#434c9e" d="M 243.785156 252.277344 C 243.785156 252.277344 227.65625 257.332031 238.925781 247.613281 L 243.34375 244.261719 L 240.449219 228.914062 L 237.484375 229.179688 L 234.253906 243.417969 C 234.253906 243.417969 236.378906 247.019531 235.007812 249.753906 C 235.007812 249.753906 219.164062 251.523438 221.503906 248.179688 C 222.644531 246.546875 221.070312 248.375 222.796875 246.65625 C 222.796875 246.65625 224.175781 245.273438 230.699219 243.308594 L 230.074219 227.667969 L 225.957031 226.984375 L 229.390625 197.257812 C 229.390625 197.257812 216.511719 200.78125 222.871094 183.238281 L 219.570312 181.628906 C 219.570312 181.628906 225.273438 171.964844 227.328125 171.28125 C 227.328125 171.28125 216.359375 160.339844 222.53125 146.328125 L 220.476562 144.960938 C 220.476562 144.960938 225.617188 132.660156 234.871094 135.394531 C 234.871094 135.394531 243.445312 132.660156 248.242188 138.125 C 248.242188 138.125 260.929688 158.292969 250.644531 172.648438 C 250.644531 172.648438 256.132812 178.796875 256.472656 182.898438 L 254.070312 183.921875 C 254.070312 183.921875 256.472656 197.59375 250.988281 197.9375 L 254.757812 227.328125 C 254.757812 227.328125 253.386719 230.40625 248.242188 229.039062 L 246.992188 248.089844 L 243.785156 252.277344 " fill-opacity="1" fill-rule="nonzero"/><path fill="#434c9e" d="M 274.109375 171.304688 C 277.558594 168.433594 279.285156 163.992188 279.285156 163.992188 C 280.578125 164.421875 282.042969 164.132812 282.042969 164.132812 C 283.21875 163.578125 285.210938 159.28125 285.210938 159.28125 C 286.789062 155.222656 284.472656 150.648438 284.472656 150.648438 C 284.472656 150.648438 277.835938 136.414062 268.292969 140.503906 C 268.292969 140.503906 256.304688 139.574219 252.125 151.945312 L 254.988281 153 C 254.988281 153 255.757812 157.261719 256.332031 158.667969 C 256.332031 158.667969 251.761719 167.054688 263.246094 174.730469 C 263.246094 174.730469 257.675781 179.003906 258.871094 182.640625 C 257.136719 185.363281 253.804688 190.855469 252.503906 194.949219 C 252.503906 194.949219 249.691406 196.914062 260.746094 203.847656 C 262.050781 205.65625 263.070312 206.042969 263.542969 207.144531 L 262.648438 208.632812 L 256.382812 232.125 L 258.769531 233.019531 C 256.382812 234.800781 252.207031 247.296875 252.207031 247.296875 L 244.113281 250.796875 C 232.695312 259.164062 254.597656 254.726562 254.597656 254.726562 L 255.1875 249.972656 C 255.1875 248.1875 257.574219 244.617188 257.574219 244.617188 C 262.347656 240.75 263.246094 235.992188 263.246094 235.992188 L 270.703125 235.101562 L 272.492188 228.261719 L 273.089844 235.992188 L 279.054688 235.398438 L 280.253906 237.480469 C 278.757812 241.640625 283.828125 251.160156 283.828125 251.160156 L 281.742188 254.429688 C 279.796875 258.363281 288.253906 263.246094 288.253906 263.246094 C 297.503906 262.058594 293.375 259.488281 293.375 259.488281 C 293.375 257.703125 287.710938 252.054688 287.710938 252.054688 C 287.109375 245.511719 285.324219 234.503906 285.324219 234.503906 L 290.097656 233.019531 L 284.726562 211.011719 L 290.097656 194.949219 C 290.394531 191.679688 284.425781 183.054688 284.425781 183.054688 C 284.425781 179.785156 281.441406 178.296875 281.441406 178.296875 L 280.71875 176.175781 L 274.445312 173.464844 Z M 260.859375 190.488281 C 261.097656 191.398438 261.0625 193.074219 261.589844 193.816406 C 261.589844 193.816406 262.902344 196.132812 262.648438 198.820312 L 257.277344 194.058594 Z M 281.441406 189.894531 L 284.425781 194.355469 L 282.9375 202.386719 L 281.441406 189.894531 " fill-opacity="1" fill-rule="nonzero"/><path fill="#434c9e" d="M 106.402344 245.921875 C 106.402344 245.921875 95.109375 246.476562 95.890625 241.425781 L 96.683594 235.195312 L 95.480469 220.273438 L 88.074219 218.976562 L 87.164062 239.597656 L 80.707031 239.9375 L 79.6875 212.832031 L 66.429688 164.378906 L 97.140625 160.261719 L 102.121094 211.816406 L 106.402344 245.921875 " fill-opacity="1" fill-rule="nonzero"/><path stroke-linecap="butt" transform="matrix(0.472626, 0, 0, 0.471156, 47.381685, 22.075524)" fill="none" stroke-linejoin="miter" d="M 88.784844 230.903739 L 88.817904 233.647987 " stroke="#ffffff" stroke-width="1.06" stroke-opacity="1" stroke-miterlimit="4"/><g clip-path="url(#4a917e65e6)"><path fill="#434c9e" d="M 104.839844 246.039062 L 97.347656 240.703125 C 95.890625 237.070312 95.324219 220.964844 95.324219 220.964844 C 95.324219 220.964844 114.101562 229.082031 95.324219 220.964844 C 76.542969 212.84375 79.347656 202.902344 79.347656 202.902344 C 79.347656 202.902344 77.8125 203.070312 77.96875 200.335938 C 77.96875 200.335938 65.140625 194.019531 62.925781 190.09375 C 62.925781 190.09375 66.167969 174.152344 74.566406 167.945312 C 74.566406 167.945312 79.730469 163.617188 84 162.109375 L 83.488281 159.949219 C 83.488281 159.949219 79.746094 157.6875 78.566406 154.132812 C 78.566406 154.132812 79.988281 157.660156 77.730469 159.417969 C 77.730469 159.417969 76.582031 166.222656 79.199219 167.378906 L 74.257812 169.460938 C 71.152344 168.359375 70.765625 165.199219 70.765625 165.199219 C 71.597656 161.890625 70.164062 162.308594 70.164062 162.308594 C 67.542969 161.152344 69.078125 157.507812 69.078125 157.507812 C 67.738281 156.683594 68.046875 155.167969 68.046875 155.167969 C 69.152344 152.070312 67.601562 151.519531 67.601562 151.519531 C 65.804688 150.996094 66.269531 148.722656 66.269531 148.722656 C 67.675781 146.082031 66.613281 145.472656 66.613281 145.472656 C 64.761719 142.488281 68.941406 140.25 68.941406 140.25 C 68.941406 140.25 71.542969 137.222656 74.582031 139.8125 C 74.582031 139.8125 75.824219 131.761719 87.894531 131.28125 C 87.894531 131.28125 89.90625 131.523438 91.488281 132.320312 C 91.488281 132.320312 93.472656 130.351562 96.941406 132.398438 C 96.941406 132.398438 100.226562 134.953125 97.023438 137.074219 C 97.023438 137.074219 100.828125 139.820312 99.097656 147.925781 C 99.097656 147.925781 103.710938 155.261719 97.5625 161.6875 C 97.5625 161.6875 95.480469 164.902344 92.5625 163.285156 C 92.5625 163.285156 99.171875 164.699219 100.992188 167.441406 L 112.316406 184.03125 L 116.378906 191.96875 L 100.078125 186.402344 C 100.078125 186.402344 98.695312 190.886719 100.417969 194.871094 C 100.417969 194.871094 134.132812 198.78125 108.714844 231.820312 L 104.0625 230.527344 C 104.0625 230.527344 105.371094 237.484375 105.03125 240.734375 L 104.839844 246.039062 M 76.144531 182.570312 C 76.144531 182.570312 73.585938 184.179688 72.25 185.710938 C 72.25 185.710938 73.523438 189.558594 76.808594 192.351562 L 76.144531 182.570312 " fill-opacity="1" fill-rule="nonzero"/></g><path fill="#e4a369" d="M 98.421875 148.503906 C 98.421875 148.503906 103.1875 155.078125 97.136719 160.261719 C 97.136719 160.261719 95.324219 165.660156 87.046875 160.746094 C 87.046875 160.746094 80.71875 157.570312 79.507812 153.769531 L 81.339844 152.558594 C 81.339844 152.558594 77.558594 154.007812 76.5 151.421875 C 76.5 151.421875 74.742188 147.195312 79.488281 149.574219 L 79.925781 148.199219 L 84.097656 137.820312 C 84.097656 137.820312 89.910156 139.671875 89.585938 135.019531 L 91.539062 134.78125 C 91.539062 134.78125 93.148438 137.796875 96.042969 137.191406 C 96.042969 137.191406 99.8125 141.667969 98.179688 146.558594 L 98.421875 148.503906 " fill-opacity="1" fill-rule="nonzero"/><path stroke-linecap="butt" transform="matrix(0.472626, 0, 0, 0.471156, 47.381685, 22.075524)" fill="none" stroke-linejoin="miter" d="M 45.930902 253.396625 C 45.930902 253.396625 40.442953 255.635136 44.046486 259.390859 C 44.046486 259.390859 47.393804 261.073887 44.22005 265.128078 C 44.22005 265.128078 41.112416 269.696298 45.492858 271.254965 C 45.492858 271.254965 49.939419 273.33595 47.798788 277.26578 C 47.798788 277.26578 45.790397 282.215376 50.104719 283.268305 C 50.104719 283.268305 53.452037 284.951333 50.220429 288.491496 C 50.220429 288.491496 46.98882 292.031659 52.005665 294.560347 C 52.005665 294.560347 56.452227 296.624751 53.989261 302.171283 C 53.989261 302.171283 52.427179 306.557105 55.774498 308.240133 M 49.303016 251.680434 C 49.303016 251.680434 43.815066 253.918944 47.418599 257.666377 C 47.418599 257.666377 50.765918 259.357696 47.592164 263.403596 C 47.592164 263.403596 44.48453 267.980107 48.864971 269.538773 C 48.864971 269.538773 53.311533 271.619759 51.170902 275.541298 C 51.170902 275.541298 49.162511 280.499184 53.476832 281.543822 C 53.476832 281.543822 56.824151 283.226851 53.592542 286.767014 C 53.592542 286.767014 50.360933 290.307177 55.377779 292.835865 C 55.377779 292.835865 59.82434 294.90856 57.361375 300.4468 C 57.361375 300.4468 55.799293 304.824332 59.146611 306.515651 M 52.790839 250.196384 C 52.790839 250.196384 47.302889 252.451476 50.898157 256.198909 C 50.898157 256.198909 54.253741 257.873646 51.079987 261.936128 C 51.079987 261.936128 47.972353 266.504348 52.352795 268.071305 C 52.352795 268.071305 56.799356 270.135709 54.658725 274.065539 C 54.658725 274.065539 52.642069 279.023425 56.964656 280.068064 C 56.964656 280.068064 60.311974 281.759383 57.080365 285.299546 C 57.080365 285.299546 53.840492 288.831418 58.865602 291.360106 C 58.865602 291.360106 63.312163 293.441091 60.849198 298.979332 C 60.849198 298.979332 59.287116 303.356864 62.634435 305.048183 M 56.939861 249.168327 C 56.939861 249.168327 51.451911 251.406838 55.047179 255.170852 C 55.047179 255.170852 58.394498 256.845589 55.229009 260.908071 C 55.229009 260.908071 52.121375 265.476291 56.501817 267.034958 C 56.501817 267.034958 60.948378 269.107653 58.807747 273.037482 C 58.807747 273.037482 56.791091 277.995369 61.113678 279.040007 C 61.113678 279.040007 64.460996 280.731326 61.229387 284.271489 C 61.229387 284.271489 57.989514 287.79507 63.014624 290.323758 M 45.930902 253.396625 C 45.930902 253.396625 49.699735 248.546519 55.543078 250.644086 M 72.106106 243.24871 C 72.106106 243.24871 70.0068 240.089923 68.271154 243.290164 C 68.271154 243.290164 66.477652 246.067576 64.485791 243.746157 C 64.485791 243.746157 63.907242 243.298455 63.204718 243.198966 M 72.097841 246.656221 C 72.097841 246.656221 69.998535 243.497434 68.254624 246.697675 C 68.254624 246.697675 66.461122 249.475086 64.477526 247.170249 C 64.477526 247.170249 61.642637 244.94832 60.890523 249.309271 M 71.056453 250.420235 C 71.056453 250.420235 68.965412 247.261448 67.221501 250.453398 C 67.221501 250.453398 65.427999 253.2391 63.444403 250.917682 C 63.444403 250.917682 60.609514 248.704044 59.8574 253.064994 M 70.02333 254.167668 C 70.02333 254.167668 67.932289 251.00888 66.188378 254.209121 C 66.188378 254.209121 64.394876 256.986533 62.403015 254.673405 C 62.403015 254.673405 59.568126 252.459767 58.824277 256.820717 M 68.857967 258.578362 C 68.857967 258.578362 66.758662 255.419575 65.023015 258.628107 C 65.023015 258.628107 63.229513 261.405518 61.237652 259.0841 C 61.237652 259.0841 59.74169 257.9151 58.634182 258.951447 M 74.403772 239.335462 C 74.403772 239.335462 72.304466 236.176675 70.568819 239.376916 C 70.568819 239.376916 68.775318 242.154328 66.783457 239.8412 C 66.783457 239.8412 66.287557 239.451533 65.651154 239.318881 M 67.080996 263.279235 C 67.080996 263.279235 64.989955 260.120447 63.246043 263.328979 C 63.246043 263.328979 61.452542 266.10639 59.460681 263.784972 M 89.421247 234.725789 L 85.850774 233.449009 " stroke="#d3d2d2" stroke-width="1.06" stroke-opacity="1" stroke-miterlimit="4"/><path stroke-linecap="butt" transform="matrix(0.472626, 0, 0, 0.471156, 47.381685, 22.075524)" fill="none" stroke-linejoin="miter" d="M 79.015633 233.440718 L 82.065412 233.921583 " stroke="#d3d2d2" stroke-width="1.06" stroke-opacity="1" stroke-miterlimit="4"/><path stroke-linecap="butt" transform="matrix(0.472626, 0, 0, 0.471156, 47.381685, 22.075524)" fill="none" stroke-linejoin="miter" d="M 77.594055 235.753846 L 74.172352 235.737264 " stroke="#d3d2d2" stroke-width="1.06" stroke-opacity="1" stroke-miterlimit="4"/><path stroke-linecap="butt" transform="matrix(0.472626, 0, 0, 0.471156, 47.381685, 22.075524)" fill="none" stroke-linejoin="miter" d="M 66.419797 266.570674 L 76.040239 244.052916 C 71.808567 237.312512 79.643772 235.074002 79.643772 235.074002 C 87.850901 232.362917 88.941878 237.768505 88.941878 237.768505 L 92.718976 237.312512 C 92.718976 237.312512 91.429639 230.207314 102.355947 232.2883 C 102.355947 232.2883 111.695379 235.422214 106.265285 243.339909 " stroke="#ffffff" stroke-width="1.06" stroke-opacity="1" stroke-miterlimit="4"/><path fill="#434c9e" d="M 91.871094 144.265625 L 91.621094 145.5 L 87.746094 145.167969 L 91.871094 144.265625 " fill-opacity="1" fill-rule="nonzero"/><path fill="#434c9e" d="M 98.355469 144.476562 L 94.726562 144.519531 L 95.097656 145.882812 L 98.355469 144.476562 " fill-opacity="1" fill-rule="nonzero"/><path fill="#434c9e" d="M 93.382812 146.691406 C 93.382812 146.691406 92.078125 150.875 96.242188 153.585938 L 94.179688 154.84375 L 94.648438 155.390625 L 97.683594 153.8125 L 97.5625 152.820312 C 97.5625 152.820312 94.234375 152.019531 93.382812 146.691406 " fill-opacity="1" fill-rule="nonzero"/><path fill="#434c9e" d="M 97.953125 155.992188 C 97.953125 155.992188 95.632812 160.097656 90.25 157.335938 C 90.25 157.335938 95.152344 162.765625 97.953125 155.992188 " fill-opacity="1" fill-rule="nonzero"/><path fill="#434c9e" d="M 90.082031 149.410156 C 90.128906 149.789062 90.433594 150.070312 90.765625 150.03125 C 91.09375 149.988281 91.324219 149.644531 91.273438 149.261719 C 91.226562 148.882812 90.921875 148.601562 90.59375 148.640625 C 90.265625 148.683594 90.035156 149.023438 90.082031 149.410156 " fill-opacity="1" fill-rule="nonzero"/><path fill="#434c9e" d="M 95.261719 148.875 C 95.308594 149.257812 95.617188 149.535156 95.945312 149.5 C 96.273438 149.457031 96.503906 149.113281 96.457031 148.730469 C 96.40625 148.347656 96.105469 148.070312 95.773438 148.109375 C 95.445312 148.152344 95.214844 148.496094 95.261719 148.875 " fill-opacity="1" fill-rule="nonzero"/><path fill="#ffffff" d="M 99.007812 195.355469 C 99.007812 195.355469 98.984375 195.246094 98.949219 195.027344 C 98.613281 193.023438 97.082031 182.480469 101.09375 178.335938 L 101.96875 177.222656 C 101.96875 177.222656 100.070312 182.867188 100.46875 184.425781 C 100.46875 184.425781 103.578125 185.859375 108.160156 188.535156 C 108.160156 188.535156 110.003906 191.363281 110.941406 184.210938 C 110.941406 184.210938 101.527344 167.015625 95.667969 165.320312 C 95.667969 165.320312 91.824219 163.578125 89.808594 163.621094 C 89.808594 163.621094 93.195312 169.84375 86.222656 167.277344 C 86.222656 167.277344 82.671875 166.300781 82.753906 163.675781 C 82.753906 163.675781 72.980469 167.882812 69.632812 175.128906 C 69.632812 175.128906 65.003906 186.675781 64.003906 188.402344 C 64.003906 188.402344 62.925781 190.09375 66.1875 191.4375 C 66.1875 191.4375 76.226562 199.269531 78.085938 199.640625 L 79.339844 197.199219 L 70.917969 187.242188 L 68.929688 187.484375 C 68.929688 187.484375 77.570312 178.988281 78.59375 177.457031 L 80.457031 177.835938 L 77.539062 182.007812 L 78.300781 194.789062 L 80.800781 197.101562 C 80.800781 197.101562 84.546875 196.074219 86.710938 197.875 L 99.007812 195.355469 " fill-opacity="1" fill-rule="nonzero"/><path fill="#e4a369" d="M 88.714844 162.949219 L 84.824219 160.808594 L 84.9375 163.40625 C 84.9375 163.40625 86.203125 165.46875 89.007812 165.324219 L 88.714844 162.949219 " fill-opacity="1" fill-rule="nonzero"/><path fill="#ffffff" d="M 89.480469 165.871094 C 89.480469 165.871094 86.570312 166.828125 84.417969 164.078125 L 83.421875 164.199219 C 83.421875 164.199219 89.867188 169.042969 89.480469 165.871094 " fill-opacity="1" fill-rule="nonzero"/><path fill="#d3d2d2" d="M 88.921875 135.210938 C 88.921875 135.210938 87.660156 137.625 84.195312 136.246094 C 84.195312 136.246094 87.632812 138.511719 88.921875 135.210938 " fill-opacity="1" fill-rule="nonzero"/><path fill="#d3d2d2" d="M 93.054688 135.011719 C 93.054688 135.011719 95.703125 136.527344 96.863281 134.699219 C 96.863281 134.699219 95.890625 137.429688 93.054688 135.011719 " fill-opacity="1" fill-rule="nonzero"/><path fill="#434c9e" d="M 78.683594 196.128906 L 76.632812 199.101562 L 77.9375 195.171875 L 78.683594 196.128906 " fill-opacity="1" fill-rule="nonzero"/><path fill="#e4a369" d="M 80.125 197.628906 L 78.570312 200.328125 C 78.570312 200.328125 78.261719 202.984375 80.757812 202.78125 C 80.757812 202.78125 82.234375 202.816406 83.457031 204.234375 C 83.457031 204.234375 86.507812 204.757812 85.738281 202.285156 C 85.738281 202.285156 87.417969 201.371094 84.886719 200.503906 C 84.886719 200.503906 81.949219 198.957031 85.21875 199.085938 C 85.21875 199.085938 87.632812 200.777344 87.269531 199.375 C 87.269531 199.375 85.515625 197.078125 80.125 197.628906 " fill-opacity="1" fill-rule="nonzero"/><path fill="#434c9e" d="M 86.148438 202.019531 C 86.148438 202.019531 84.320312 200.46875 82.757812 200.515625 C 82.757812 200.515625 85.65625 202.082031 85.933594 202.613281 L 86.148438 202.019531 " fill-opacity="1" fill-rule="nonzero"/><path fill="#434c9e" d="M 85.414062 204.167969 C 85.414062 204.167969 85.402344 202.320312 82.101562 201.519531 C 82.101562 201.519531 85.074219 203.144531 84.730469 204.394531 L 85.414062 204.167969 " fill-opacity="1" fill-rule="nonzero"/><path fill="#fddd03" d="M 153.476562 160.90625 L 155.449219 160.199219 L 154.441406 158.960938 L 153.476562 160.90625 " fill-opacity="1" fill-rule="nonzero"/><path fill="#434c9e" d="M 153.113281 200.507812 C 150.664062 200.507812 148.3125 201.015625 146.117188 201.933594 L 139.164062 199.707031 L 138.792969 183.972656 L 159.132812 159.082031 L 157.777344 155.046875 L 157.351562 153.792969 L 139.714844 165.796875 L 140.757812 163.945312 C 140.757812 163.945312 143.3125 159.207031 136.410156 148.738281 C 136.410156 148.738281 133.039062 142.921875 125.746094 143.484375 C 125.746094 143.484375 117.359375 141.574219 114.246094 148.09375 C 114.246094 148.09375 100.078125 167.332031 117.613281 179.078125 L 112.980469 183.277344 C 112.980469 183.277344 111.777344 179.214844 105.765625 179.214844 L 98.75 178.714844 C 98.75 178.714844 95.746094 181.710938 98.75 184.210938 L 104.761719 184.210938 C 104.761719 184.210938 108.769531 184.710938 108.269531 189.703125 L 108.53125 212.34375 C 104.4375 217.3125 101.871094 224.433594 101.871094 232.347656 C 101.871094 247.355469 111.085938 259.519531 122.457031 259.519531 C 129.5625 259.519531 135.828125 254.769531 139.53125 247.546875 C 143.246094 251.21875 147.972656 253.421875 153.113281 253.421875 C 165.050781 253.421875 174.765625 241.554688 174.765625 226.96875 C 174.765625 212.375 165.050781 200.507812 153.113281 200.507812 Z M 169.257812 226.96875 C 169.257812 229.957031 168.765625 232.800781 167.898438 235.378906 L 156.765625 230.414062 L 155.300781 227.199219 C 155.300781 227.199219 163 213.546875 158.855469 207.375 C 164.929688 210.386719 169.257812 218.027344 169.257812 226.96875 Z M 121.871094 250.933594 C 114.601562 250.933594 108.714844 242.375 108.714844 231.820312 C 108.714844 228.910156 109.164062 226.152344 109.960938 223.683594 L 132.128906 233.476562 C 132.554688 235.53125 133.183594 237.492188 133.976562 239.324219 C 131.96875 246.148438 127.308594 250.933594 121.871094 250.933594 Z M 153.113281 247.929688 C 149.621094 247.929688 146.386719 246.476562 143.746094 244.019531 L 150.308594 245.917969 L 166.015625 239.546875 C 163.066406 244.636719 158.382812 247.929688 153.113281 247.929688 " fill-opacity="1" fill-rule="nonzero"/><path fill="#858a9c" d="M 116.460938 211.519531 C 110.496094 214.570312 106.21875 222.664062 106.21875 232.15625 C 106.21875 244.246094 113.167969 257.078125 121.707031 257.078125 C 111.507812 257.078125 103.214844 245.898438 103.214844 232.15625 C 103.214844 221.84375 107.878906 212.976562 114.511719 209.191406 L 116.460938 211.519531 " fill-opacity="1" fill-rule="nonzero"/><path fill="#f6d841" d="M 118.355469 178.0625 L 121.617188 175.242188 L 121.117188 172.089844 C 121.117188 172.089844 119.214844 170.753906 118.078125 167.492188 C 118.078125 167.492188 114.359375 171.765625 111.960938 166.839844 C 111.960938 166.839844 110.75 163.5625 113.390625 162.691406 C 113.390625 162.691406 116.371094 161.070312 118.734375 154.007812 C 118.734375 154.007812 120.554688 152.339844 121.976562 156.960938 C 121.976562 156.960938 122.832031 153.597656 122.976562 150.117188 L 125.101562 156.242188 L 126.417969 155.804688 L 125.652344 149.464844 L 128.605469 155.003906 L 131.402344 153.640625 L 128.707031 148.292969 L 133.910156 153.300781 C 133.910156 153.300781 142.265625 161.75 134.632812 169.746094 L 138.234375 166.074219 C 138.234375 166.074219 142.734375 159.480469 136.90625 151.855469 C 136.90625 151.855469 133.035156 143.464844 124.648438 144.546875 C 124.648438 144.546875 118.382812 142.992188 114.496094 149.136719 C 114.496094 149.136719 108.675781 156.273438 110.046875 166.441406 C 110.046875 166.441406 110.3125 174.015625 118.355469 178.0625 " fill-opacity="1" fill-rule="nonzero"/><path fill="#e5ad93" d="M 119.8125 154.992188 L 121.734375 158.386719 L 122.378906 158.050781 L 123.425781 154.429688 L 124.113281 157.320312 L 126.820312 156.898438 L 127.21875 154.988281 L 128.332031 156.199219 L 132.515625 154.851562 L 131.34375 151.804688 C 131.34375 151.804688 136.8125 156.65625 136.777344 161.335938 C 136.777344 161.335938 138.105469 165.988281 133.183594 169.992188 C 133.183594 169.992188 132.25 171.96875 132.0625 172.226562 C 132.0625 172.226562 131.253906 173.273438 127.949219 172.867188 C 127.949219 172.867188 121.117188 172.089844 118.945312 167.125 L 118.078125 167.492188 C 118.078125 167.492188 117.863281 166.140625 115.972656 167.359375 C 115.972656 167.359375 113.863281 168.613281 113.242188 166.175781 C 113.242188 166.175781 112.101562 163.351562 116.003906 164.585938 L 115.90625 162.527344 C 115.90625 162.527344 119.765625 156.15625 119.8125 154.992188 " fill-opacity="1" fill-rule="nonzero"/><path fill="#434c9e" d="M 113.695312 166.101562 C 113.695312 166.101562 114.992188 164.054688 116.371094 165.453125 L 116.058594 166.421875 C 116.058594 166.421875 115.429688 165.367188 113.695312 166.101562 " fill-opacity="1" fill-rule="nonzero"/><path fill="#434c9e" d="M 122.519531 158.957031 L 125.886719 156.8125 L 125.835938 158.46875 L 122.519531 158.957031 " fill-opacity="1" fill-rule="nonzero"/><path fill="#434c9e" d="M 129.273438 156.28125 L 129.449219 157.40625 C 129.449219 157.40625 131.722656 155.667969 132.539062 156.464844 C 132.539062 156.464844 131.28125 154.351562 129.273438 156.28125 " fill-opacity="1" fill-rule="nonzero"/><path fill="#434c9e" d="M 128.34375 159.195312 L 132.296875 162.269531 C 132.296875 162.269531 133.375 163.253906 130.324219 164.421875 L 128.777344 164.890625 L 130.980469 162.707031 L 128.34375 159.195312 " fill-opacity="1" fill-rule="nonzero"/><path fill="#434c9e" d="M 126.363281 166.734375 C 126.363281 166.734375 129.117188 169.527344 133.242188 166.347656 C 133.242188 166.347656 131.539062 171.691406 126.363281 166.734375 " fill-opacity="1" fill-rule="nonzero"/><path fill="#434c9e" d="M 127.304688 160.226562 C 127.367188 160.609375 127.09375 160.964844 126.695312 161.027344 C 126.296875 161.09375 125.925781 160.835938 125.867188 160.453125 C 125.808594 160.070312 126.082031 159.714844 126.476562 159.652344 C 126.875 159.589844 127.25 159.84375 127.304688 160.226562 " fill-opacity="1" fill-rule="nonzero"/><path fill="#434c9e" d="M 131.898438 158.574219 C 131.960938 158.953125 131.6875 159.316406 131.289062 159.378906 C 130.886719 159.441406 130.519531 159.179688 130.457031 158.800781 C 130.394531 158.421875 130.671875 158.058594 131.074219 158 C 131.46875 157.9375 131.839844 158.195312 131.898438 158.574219 " fill-opacity="1" fill-rule="nonzero"/><path fill="#ffffff" d="M 158.433594 158.804688 C 158.433594 158.804688 156.328125 161.320312 155.066406 163 L 138.574219 182.160156 L 137.453125 180.558594 C 137.453125 180.558594 138.035156 196.199219 137.019531 199.53125 C 137.019531 199.53125 131.933594 204.164062 122.785156 202.863281 L 119.730469 200.976562 L 119.730469 191.5625 L 118.425781 201.269531 L 130.953125 210.238281 L 129.480469 214.332031 C 129.480469 214.332031 126.847656 215.476562 114.210938 207.65625 C 114.210938 207.65625 109.417969 193.882812 113.195312 184.46875 C 113.195312 184.46875 117.550781 179.796875 122.382812 176.839844 C 122.382812 176.839844 125.25 180.203125 127.429688 180.058594 C 127.429688 180.058594 132.761719 177.960938 131.109375 175.472656 L 129.953125 174.046875 C 129.953125 174.046875 131.746094 175.234375 133.746094 171.105469 L 156.609375 155.726562 " fill-opacity="1" fill-rule="nonzero"/><path fill="#ffffff" d="M 124 177.027344 L 123.710938 175.121094 L 127.292969 177.820312 L 129.953125 175.304688 L 130.800781 176.285156 C 130.800781 176.285156 127.578125 182.25 124 177.027344 " fill-opacity="1" fill-rule="nonzero"/><path fill="#e5ad93" d="M 124.792969 173.679688 C 124.792969 173.679688 127.835938 175.257812 129.414062 175.007812 L 127.152344 176.839844 L 124.589844 175.078125 C 124.589844 175.078125 124.664062 174.726562 124.792969 173.679688 " fill-opacity="1" fill-rule="nonzero"/><path fill="#2b94c4" d="M 140.632812 213.15625 C 139.429688 211.078125 133.65625 210.179688 133.65625 210.179688 L 125.640625 204.519531 C 133.320312 204.1875 137.65625 201.519531 137.65625 201.519531 C 143.273438 201.753906 155.300781 206.726562 155.300781 206.726562 C 155.300781 206.726562 163.222656 207.894531 152.753906 229.558594 L 149.820312 230.433594 L 151.78125 211.695312 C 151.78125 211.695312 154.125 209.652344 142.097656 207.308594 L 149.722656 211.40625 L 148.394531 231.070312 C 146.289062 233.746094 144.28125 232.4375 144.28125 232.4375 C 144.28125 232.4375 144.644531 220.113281 140.632812 213.15625 " fill-opacity="1" fill-rule="nonzero"/><path fill="#b0b5c0" d="M 107.269531 180.542969 C 107.269531 180.542969 110.609375 180.542969 110.941406 184.210938 C 110.941406 184.210938 109.273438 196.859375 112.277344 207.511719 L 109.9375 210.179688 L 108.9375 185.539062 C 108.9375 185.539062 108.9375 182.875 106.265625 182.875 C 106.265625 182.875 105.265625 181.214844 107.269531 180.542969 " fill-opacity="1" fill-rule="nonzero"/><path fill="#e5ad93" d="M 130.660156 214.332031 L 132.417969 210.527344 C 132.417969 210.527344 140.925781 211.988281 140.925781 217.546875 C 140.925781 217.546875 140.042969 218.132812 139.164062 216.667969 C 139.164062 216.667969 138.453125 215.441406 137.398438 215.144531 C 137.398438 215.144531 138.300781 216.046875 138.601562 217.097656 C 138.601562 217.097656 139.960938 218.59375 138.902344 219.347656 C 138.902344 219.347656 137.847656 219.796875 137.550781 218.148438 C 137.550781 218.148438 136.792969 216.945312 136.042969 216.195312 C 136.042969 216.195312 137.246094 218.894531 137.398438 219.347656 C 137.398438 219.347656 137.550781 221.300781 136.191406 219.796875 C 136.191406 219.796875 134.382812 217.695312 134.382812 217.097656 C 134.382812 217.097656 132.5 217.269531 130.660156 214.332031 " fill-opacity="1" fill-rule="nonzero"/><path fill="#434c9e" d="M 126.097656 229.015625 L 118.890625 232.78125 C 118.890625 232.78125 117.519531 237.566406 120.605469 236.886719 L 129.871094 231.753906 L 126.097656 229.015625 " fill-opacity="1" fill-rule="nonzero"/><path fill="#858a9c" d="M 133.851562 252.484375 C 147.625 238.753906 139.074219 221.226562 138.984375 221.054688 L 135.847656 222.613281 C 136.160156 223.242188 143.335938 238.089844 131.371094 250.011719 C 131.371094 250.011719 123.007812 258.773438 113.746094 249.878906 C 113.746094 249.878906 123.433594 262.953125 133.851562 252.484375 " fill-opacity="1" fill-rule="nonzero"/><path fill="#858a9c" d="M 156.359375 203.589844 C 156.90625 203.65625 170.269531 207.28125 173.3125 224.808594 C 171.53125 204.195312 156.246094 202.148438 156.089844 202.128906 L 156.359375 203.589844 " fill-opacity="1" fill-rule="nonzero"/><path fill="#2b94c4" d="M 119.582031 212.261719 C 119.582031 212.261719 125.753906 216.367188 129.183594 216.023438 L 131.929688 218.414062 C 131.929688 218.414062 120.949219 219.441406 119.582031 212.261719 " fill-opacity="1" fill-rule="nonzero"/><path fill="#ffffff" d="M 144.5 233.429688 C 144.5 233.429688 147.515625 233.878906 148.664062 232.15625 L 153.472656 236.945312 L 156.355469 238.863281 C 156.355469 238.863281 157.957031 243.652344 150.910156 241.417969 L 143.863281 238.542969 L 144.5 233.429688 " fill-opacity="1" fill-rule="nonzero"/><path fill="#ffffff" d="M 150.910156 231.519531 L 153.472656 230.242188 L 156.996094 233.75 L 160.839844 235.667969 C 160.839844 235.667969 163.402344 238.542969 158.59375 238.863281 C 158.59375 238.863281 157.636719 236.625 155.394531 235.667969 L 150.910156 231.519531 " fill-opacity="1" fill-rule="nonzero"/><path fill="#434c9e" d="M 166.167969 147.582031 C 166.167969 147.582031 161.355469 149.1875 156.667969 154.605469 L 158.757812 158.640625 L 161.039062 157.90625 C 161.039062 157.90625 163.941406 159.894531 165.425781 155.214844 C 165.425781 155.214844 166.292969 152.882812 165.054688 151.894531 C 165.054688 151.894531 172.148438 145.414062 166.167969 147.582031 " fill-opacity="1" fill-rule="nonzero"/><path fill="#e5ad93" d="M 158.792969 157.433594 L 157.257812 155.078125 C 157.257812 155.078125 161.628906 149.417969 167.300781 147.652344 C 167.300781 147.652344 168.71875 148.359375 164.464844 151.074219 C 164.464844 151.074219 162.339844 151.070312 160.683594 152.488281 C 160.683594 152.488281 164.230469 150.949219 164.820312 152.25 C 164.820312 152.25 165.648438 152.957031 165.175781 153.429688 C 165.175781 153.429688 163.757812 155.667969 163.875 153.3125 C 163.875 153.3125 162.8125 154.84375 160.800781 155.902344 L 158.792969 157.433594 " fill-opacity="1" fill-rule="nonzero"/><path fill="#e5ad93" d="M 164.9375 154.84375 C 164.9375 154.84375 164.347656 157.433594 162.339844 156.136719 C 162.339844 156.136719 162.21875 155.3125 163.402344 155.195312 C 163.402344 155.195312 164.230469 155.195312 164.9375 154.84375 " fill-opacity="1" fill-rule="nonzero"/><path fill="#e5ad93" d="M 163.519531 157.082031 C 163.519531 157.082031 162.101562 157.199219 161.746094 156.492188 C 161.394531 155.785156 161.511719 156.492188 161.511719 156.492188 C 161.511719 156.492188 160.449219 156.726562 161.394531 157.316406 C 161.394531 157.316406 162.574219 158.023438 163.519531 157.082031 " fill-opacity="1" fill-rule="nonzero"/><path fill="#34b5ed" d="M 88.515625 199.132812 L 98.253906 197.152344 L 100.757812 196.566406 L 107.894531 198.9375 L 108.234375 209.78125 L 98.722656 204.359375 L 103.894531 209.738281 C 103.894531 209.738281 96.527344 212.253906 96.21875 217.5 C 96.21875 217.5 79.003906 211.136719 80.367188 203.683594 C 80.367188 203.683594 86.484375 210.125 88.523438 199.957031 " fill-opacity="1" fill-rule="nonzero"/><path fill="#ce925f" d="M 82.066406 238.246094 L 85.464844 238.582031 L 86.144531 217.238281 L 96.03125 218.792969 C 96.03125 218.792969 80.074219 214.226562 79.003906 204.699219 L 81.386719 214.863281 L 82.066406 238.246094 " fill-opacity="1" fill-rule="nonzero"/><path fill="#ce925f" d="M 72.25 185.710938 L 76.625 191.484375 L 75.605469 183.351562 L 72.25 185.710938 " fill-opacity="1" fill-rule="nonzero"/><path fill="#ce925f" d="M 70.167969 171.152344 L 72.546875 169.125 C 72.546875 169.125 69.65625 166.363281 70.761719 165.199219 L 68.46875 165.394531 L 70.167969 171.152344 " fill-opacity="1" fill-rule="nonzero"/><path fill="#ffffff" d="M 98.222656 236.195312 L 101.71875 236.488281 L 102.152344 239.105469 L 98.078125 238.234375 L 98.078125 236.488281 " fill-opacity="1" fill-rule="nonzero"/><path fill="#ffffff" d="M 97.347656 239.105469 L 102.300781 240.261719 C 102.300781 240.261719 102.886719 243.023438 103.613281 244.910156 L 97.203125 243.3125 C 97.203125 243.3125 96.328125 240.988281 97.347656 239.105469 " fill-opacity="1" fill-rule="nonzero"/><path fill="#e5ad93" d="M 256.53125 153.546875 C 256.53125 153.546875 256.304688 155.722656 257.375 158.238281 C 257.375 158.238281 253.859375 165.75 263.054688 172.78125 C 263.054688 172.78125 266.910156 175.84375 269.851562 173.171875 C 269.851562 173.171875 277.351562 168.242188 278.5 162.523438 L 279.230469 162.367188 C 279.230469 162.367188 282.320312 165.0625 282.890625 160.226562 C 282.890625 160.226562 283.207031 157.042969 281.105469 157.183594 C 281.105469 157.183594 280.085938 157.777344 279.660156 160.074219 L 278.042969 159.652344 C 278.042969 159.652344 278.949219 154.214844 274.945312 149.738281 L 275.15625 152.886719 L 271.265625 153.25 C 271.265625 153.25 269.214844 151.859375 270.007812 149.484375 L 268.992188 154.035156 L 259.847656 154.066406 L 260.707031 148.789062 L 258.351562 153.847656 L 256.53125 153.546875 " fill-opacity="1" fill-rule="nonzero"/><path fill="#434c9e" d="M 266.648438 159.863281 C 266.546875 160.265625 266.132812 160.503906 265.734375 160.394531 C 265.332031 160.292969 265.089844 159.886719 265.195312 159.488281 C 265.304688 159.085938 265.710938 158.847656 266.109375 158.949219 C 266.511719 159.054688 266.753906 159.464844 266.648438 159.863281 " fill-opacity="1" fill-rule="nonzero"/><path fill="#434c9e" d="M 260.984375 159.605469 C 260.878906 160.003906 260.46875 160.246094 260.066406 160.136719 C 259.664062 160.035156 259.421875 159.625 259.527344 159.226562 C 259.636719 158.828125 260.042969 158.585938 260.445312 158.691406 C 260.847656 158.792969 261.085938 159.203125 260.984375 159.605469 " fill-opacity="1" fill-rule="nonzero"/><path fill="#434c9e" d="M 260.308594 167.261719 C 260.308594 167.261719 264.046875 169.4375 267.222656 167.855469 C 267.222656 167.855469 263.664062 171.574219 260.308594 167.261719 " fill-opacity="1" fill-rule="nonzero"/><path fill="#434c9e" d="M 265.238281 155.070312 L 265.054688 157.085938 C 265.054688 157.085938 267.378906 155.449219 270 156.648438 C 270 156.648438 269.289062 154.742188 265.238281 155.070312 " fill-opacity="1" fill-rule="nonzero"/><path fill="#434c9e" d="M 256.292969 156.066406 L 260.75 155.507812 L 260.445312 157.316406 L 256.292969 156.066406 " fill-opacity="1" fill-rule="nonzero"/><path fill="#434c9e" d="M 262.472656 158.53125 C 262.472656 158.53125 262.980469 160.554688 260.597656 163.71875 C 260.597656 163.71875 260.230469 164.476562 262.445312 165.226562 C 262.445312 165.226562 264.5 165.933594 264.800781 164.808594 C 264.800781 164.808594 263.375 164.953125 262.136719 163.769531 C 262.136719 163.769531 264.15625 160 262.472656 158.53125 " fill-opacity="1" fill-rule="nonzero"/><path fill="#34b2a7" d="M 274.878906 174.730469 L 279.355469 176.515625 C 279.355469 176.515625 275.777344 182.164062 278.761719 187.21875 L 282.339844 208.632812 C 282.339844 208.632812 275.480469 213.097656 264.441406 210.117188 C 264.441406 210.117188 265.339844 197.035156 262.054688 187.8125 C 262.054688 187.8125 259.667969 181.867188 261.457031 178.296875 L 264.441406 175.324219 C 264.441406 175.324219 262.351562 183.652344 267.726562 183.351562 C 267.726562 183.351562 272.195312 184.246094 274.582031 177.703125 L 274.878906 174.730469 " fill-opacity="1" fill-rule="nonzero"/><path fill="#e5ad93" d="M 265.933594 175.324219 C 265.933594 175.324219 268.707031 176.546875 272.582031 172.382812 C 272.582031 172.382812 274.582031 181.570312 268.023438 181.867188 C 268.023438 181.867188 263.546875 181.867188 265.933594 175.324219 " fill-opacity="1" fill-rule="nonzero"/><path fill="#e5ad93" d="M 280.550781 178.894531 C 280.550781 178.894531 277.265625 182.460938 280.253906 186.625 L 286.515625 193.765625 L 283.535156 203.578125 L 284.425781 207.441406 L 288.902344 195.546875 C 288.902344 195.546875 290.097656 191.386719 283.238281 184.246094 C 283.238281 184.246094 283.832031 181.570312 280.550781 178.894531 " fill-opacity="1" fill-rule="nonzero"/><path fill="#e5ad93" d="M 253.703125 195.25 C 253.703125 195.25 254.894531 189.601562 259.667969 183.949219 L 260.566406 188.109375 L 256.683594 192.871094 L 256.386719 194.359375 L 262.953125 200.902344 L 263.25 204.46875 L 261.457031 202.386719 C 261.457031 202.386719 253.402344 198.222656 253.703125 195.25 " fill-opacity="1" fill-rule="nonzero"/><path fill="#ce925f" d="M 263.25 211.3125 C 263.25 211.3125 270.707031 215.773438 282.9375 210.71875 L 287.710938 231.53125 L 275.183594 233.910156 L 272.492188 221.421875 L 268.914062 233.019531 C 268.914062 233.019531 262.648438 236.292969 258.773438 230.640625 " fill-opacity="1" fill-rule="nonzero"/><path fill="#434c9e" d="M 268.320312 174.433594 C 268.320312 174.433594 269.511719 178.296875 267.421875 179.488281 C 267.421875 179.488281 268.808594 177.871094 265.933594 175.324219 L 268.320312 174.433594 " fill-opacity="1" fill-rule="nonzero"/><path fill="#e5ad93" d="M 280.597656 235.023438 L 283.984375 234.3125 C 283.984375 234.3125 286.472656 246.210938 286.828125 251.710938 L 283.449219 253.84375 L 285.050781 250.820312 C 285.050781 250.820312 279.53125 242.304688 281.308594 238.042969 L 280.597656 235.023438 " fill-opacity="1" fill-rule="nonzero"/><path fill="#e5ad93" d="M 285.585938 258.101562 L 290.039062 255.972656 C 290.039062 255.972656 293.417969 258.101562 292.527344 259.699219 C 292.527344 259.699219 289.859375 263.425781 285.585938 258.101562 " fill-opacity="1" fill-rule="nonzero"/><path fill="#e5ad93" d="M 262.078125 235.203125 L 259.585938 233.246094 C 259.585938 233.246094 254.421875 241.945312 253.175781 247.273438 L 254.601562 248.511719 C 254.601562 248.511719 256.023438 244.433594 258.164062 242.835938 C 258.164062 242.835938 262.078125 238.929688 262.078125 235.203125 " fill-opacity="1" fill-rule="nonzero"/><path fill="#e5ad93" d="M 248.546875 249.578125 L 250.148438 252.417969 C 250.148438 252.417969 234.65625 255.972656 248.546875 249.578125 " fill-opacity="1" fill-rule="nonzero"/><path fill="#ce925f" d="M 287.1875 252.953125 L 288.96875 254.90625 C 288.96875 254.90625 283.984375 256.855469 284.691406 257.921875 C 284.691406 257.921875 287.902344 264.667969 293.242188 260.410156 C 293.242188 260.410156 292.882812 263.425781 288.253906 262.007812 C 288.253906 262.007812 281.132812 258.101562 282.554688 255.4375 C 282.554688 255.4375 286.472656 253.128906 287.1875 252.953125 " fill-opacity="1" fill-rule="nonzero"/><path fill="#ce925f" d="M 249.792969 249.128906 L 252.644531 247.886719 C 252.644531 247.886719 254.421875 250.375 254.066406 253.921875 C 254.066406 253.921875 242.3125 256.050781 241.957031 253.921875 C 241.957031 253.921875 246.410156 254.453125 250.863281 253.035156 C 250.863281 253.035156 252.285156 252.324219 249.792969 249.128906 " fill-opacity="1" fill-rule="nonzero"/><path fill="#fde3ac" d="M 225.957031 146.671875 L 232.816406 147.695312 L 235.21875 142.570312 L 235.558594 148.382812 L 239.328125 148.722656 C 239.328125 148.722656 242.414062 156.242188 241.046875 161.023438 L 240.015625 163.078125 L 240.015625 168.886719 C 240.015625 168.886719 235.558594 172.648438 235.558594 168.886719 L 235.558594 165.128906 C 235.558594 165.128906 230.074219 168.886719 227.675781 164.445312 C 227.675781 164.445312 222.53125 160.339844 225.273438 153.164062 C 225.273438 153.164062 223.902344 149.40625 225.957031 146.671875 " fill-opacity="1" fill-rule="nonzero"/><path fill="#434c9e" d="M 234.117188 161.113281 C 234.117188 161.113281 231.058594 163.300781 227.550781 161.152344 C 227.550781 161.152344 230.207031 165.476562 234.117188 161.113281 " fill-opacity="1" fill-rule="nonzero"/><path fill="#434c9e" d="M 231.96875 159.898438 L 228.425781 159.460938 C 228.425781 159.460938 227.339844 160.261719 228.320312 157.984375 C 228.320312 157.984375 230.257812 155.148438 229.660156 152.605469 C 229.660156 152.605469 230.667969 155.539062 229.019531 158.695312 C 229.019531 158.695312 233.207031 158.554688 231.96875 159.898438 " fill-opacity="1" fill-rule="nonzero"/><path fill="#434c9e" d="M 228.5 152.421875 L 228.808594 153.539062 L 225.007812 152.171875 L 228.5 152.421875 " fill-opacity="1" fill-rule="nonzero"/><path fill="#434c9e" d="M 233.015625 153.089844 L 232.523438 154.230469 L 236.605469 153.710938 L 233.015625 153.089844 " fill-opacity="1" fill-rule="nonzero"/><path fill="#434c9e" d="M 236.875 151.03125 C 236.875 151.03125 234.183594 150.761719 233.589844 151.53125 L 233.234375 150.21875 C 233.234375 150.21875 235.816406 150.117188 236.875 151.03125 " fill-opacity="1" fill-rule="nonzero"/><path fill="#434c9e" d="M 228.242188 149.277344 L 228.039062 150.738281 C 228.039062 150.738281 226.316406 149.601562 224.9375 150.082031 C 224.9375 150.082031 226.914062 148.839844 228.242188 149.277344 " fill-opacity="1" fill-rule="nonzero"/><path fill="#34b5ed" d="M 242.074219 169.570312 L 245.503906 170.9375 C 245.503906 170.9375 242.761719 181.535156 246.871094 187 L 246.871094 188.371094 L 245.554688 188.953125 L 239.675781 189.738281 C 239.675781 189.738281 233.160156 186.316406 228.703125 185.976562 L 230.414062 171.28125 L 233.15625 169.910156 L 233.503906 179.824219 L 241.730469 179.480469 C 241.730469 179.480469 241.046875 174.015625 242.074219 169.570312 " fill-opacity="1" fill-rule="nonzero"/><path fill="#34b5ed" d="M 230.074219 197.59375 L 238.988281 195.546875 C 238.988281 195.546875 245.5 199.644531 250.304688 198.960938 L 253.046875 226.984375 C 253.046875 226.984375 254.070312 229.039062 248.929688 227.667969 L 248.242188 217.761719 L 246.871094 226.984375 C 246.871094 226.984375 245.84375 228.011719 242.761719 227.667969 L 241.386719 217.417969 L 240.015625 227.667969 C 240.015625 227.667969 235.558594 228.695312 234.1875 226.984375 L 233.847656 214.683594 L 232.472656 225.28125 L 227.675781 225.621094 C 227.675781 225.621094 228.703125 201.355469 230.074219 197.59375 " fill-opacity="1" fill-rule="nonzero"/><path fill="#f57fc5" d="M 247.21875 171.964844 C 247.21875 171.964844 252.148438 175.054688 254.414062 182.214844 L 247.558594 184.609375 C 247.558594 184.609375 244.816406 174.351562 247.21875 171.964844 " fill-opacity="1" fill-rule="nonzero"/><path fill="#f57fc5" d="M 229.046875 171.621094 L 227.328125 183.582031 L 222.53125 181.535156 C 222.53125 181.535156 224.933594 173.332031 229.046875 171.621094 " fill-opacity="1" fill-rule="nonzero"/><path fill="#f57fc5" d="M 234.53125 172.304688 L 234.53125 177.773438 L 240.015625 177.773438 L 240.359375 171.28125 C 240.359375 171.28125 236.242188 173.671875 234.53125 172.304688 " fill-opacity="1" fill-rule="nonzero"/><path fill="#fde3ac" d="M 253.046875 184.609375 C 253.046875 184.609375 253.386719 200.328125 247.5625 197.222656 L 240.714844 195.238281 L 248.589844 193.152344 C 248.589844 193.152344 248.242188 187.34375 248.929688 186.316406 L 253.046875 184.609375 " fill-opacity="1" fill-rule="nonzero"/><path fill="#fde3ac" d="M 247.457031 189.539062 L 247.457031 192.316406 C 247.457031 192.316406 233.535156 196.699219 224.445312 195.96875 C 224.445312 195.96875 220.492188 193.925781 223.421875 183.695312 L 227.230469 185.304688 L 227.667969 187.785156 C 227.667969 187.785156 221.070312 189.246094 225.324219 191.589844 C 225.324219 191.589844 224.300781 193.632812 231.625 192.171875 L 247.457031 189.539062 " fill-opacity="1" fill-rule="nonzero"/><path fill="#fde3ac" d="M 229.136719 187.933594 C 229.136719 187.933594 227.523438 187.640625 228.402344 187.054688 C 228.402344 187.054688 230.453125 187.054688 231.625 187.492188 L 236.757812 189.980469 L 228.84375 191.734375 C 228.84375 191.734375 224.59375 192.171875 225.910156 191.003906 L 230.160156 189.980469 C 230.160156 189.980469 227.082031 189.835938 225.472656 190.417969 C 225.472656 190.417969 223.421875 189.539062 227.667969 188.222656 L 229.136719 187.933594 " fill-opacity="1" fill-rule="nonzero"/><path fill="#434c9e" d="M 224.59375 189.101562 C 224.59375 189.101562 228.402344 188.515625 229.574219 188.664062 L 224.738281 189.6875 L 224.59375 189.101562 " fill-opacity="1" fill-rule="nonzero"/><path fill="#fde3ac" d="M 243.148438 238.046875 L 246.652344 238.046875 L 246.917969 228.375 C 246.917969 228.375 243.417969 229.449219 242.066406 229.179688 L 243.148438 238.046875 " fill-opacity="1" fill-rule="nonzero"/><path fill="#fde3ac" d="M 231.039062 227.839844 C 231.039062 227.839844 234.273438 229.449219 236.15625 229.179688 L 234.8125 236.4375 L 231.4375 236.414062 L 231.039062 227.839844 " fill-opacity="1" fill-rule="nonzero"/><path fill="#ffffff" d="M 222.03125 248.664062 C 222.03125 248.664062 222.703125 246.082031 230.765625 244.359375 C 230.765625 244.359375 233.421875 245.101562 233.835938 244.261719 C 233.835938 244.261719 234.796875 247.324219 234.125 248.570312 C 234.125 248.570312 228.558594 249.8125 222.03125 248.664062 " fill-opacity="1" fill-rule="nonzero"/><path fill="#ffffff" d="M 231.535156 243.496094 L 233.359375 243.402344 L 234.894531 237.277344 L 231.4375 237.183594 L 231.535156 243.496094 " fill-opacity="1" fill-rule="nonzero"/><path fill="#ffffff" d="M 236.042969 252.589844 C 236.042969 252.589844 242.476562 253.355469 246.609375 247.039062 L 246.125 244.738281 C 246.125 244.738281 245.359375 245.601562 244.207031 244.550781 C 244.207031 244.550781 235.660156 249.621094 236.042969 252.589844 " fill-opacity="1" fill-rule="nonzero"/><path fill="#ffffff" d="M 243.148438 238.714844 C 243.148438 238.714844 245.453125 239.289062 246.796875 238.613281 L 246.320312 243.78125 C 246.320312 243.78125 245.453125 244.933594 244.011719 243.59375 L 243.148438 238.714844 " fill-opacity="1" fill-rule="nonzero"/><path fill="#434c9e" d="M 222.894531 246.945312 C 222.894531 246.945312 227.214844 248.855469 234.21875 247.132812 C 234.21875 247.132812 229.136719 249.332031 222.414062 247.613281 L 222.894531 246.945312 " fill-opacity="1" fill-rule="nonzero"/><path fill="#434c9e" d="M 236.238281 250.863281 C 236.238281 250.863281 241.902344 251.917969 246.226562 246.371094 C 246.226562 246.371094 242.570312 252.78125 235.855469 251.4375 L 236.238281 250.863281 " fill-opacity="1" fill-rule="nonzero"/><path fill="#434c9e" d="M 143.429688 235.957031 C 143.429688 235.957031 153.609375 242.234375 156.386719 238.355469 C 156.386719 238.355469 155.832031 243.894531 143.246094 236.878906 L 143.429688 235.957031 " fill-opacity="1" fill-rule="nonzero"/><path fill="#434c9e" d="M 154.902344 236.324219 C 154.902344 236.324219 158.261719 238.519531 160.839844 235.667969 C 160.839844 235.667969 160.832031 238.726562 156.203125 237.621094 L 154.902344 236.324219 " fill-opacity="1" fill-rule="nonzero"/><path fill="#434c9e" d="M 235.421875 165.425781 C 235.421875 165.425781 238.46875 164.945312 241.046875 161.023438 L 241.460938 163.277344 C 241.460938 163.277344 238.585938 165.566406 235.421875 165.425781 " fill-opacity="1" fill-rule="nonzero"/><path fill="#ffffff" d="M 238.300781 140.625 C 238.300781 140.625 247.070312 154.238281 243.472656 162.273438 C 243.472656 162.273438 241.75 167.859375 242.902344 168.722656 C 242.902344 168.722656 241.320312 165.425781 242.757812 161.550781 C 242.757812 161.550781 246.207031 155.53125 238.300781 140.625 " fill-opacity="1" fill-rule="nonzero"/><path fill="#ffffff" d="M 230.964844 146.070312 L 231.824219 146.210938 C 231.824219 146.210938 234.5625 140.476562 236.140625 139.332031 C 236.140625 139.332031 232.257812 142.484375 230.964844 146.070312 " fill-opacity="1" fill-rule="nonzero"/><path fill="#434c9e" d="M 257.398438 144.480469 C 257.398438 144.480469 248.929688 138.546875 253.320312 131.039062 L 254.421875 127.445312 L 255.671875 124.160156 L 252.222656 123.378906 L 253.152344 121.910156 C 253.152344 121.910156 240.085938 114.488281 251.832031 114.488281 C 251.832031 114.488281 255.800781 114.652344 261.316406 116.816406 C 261.316406 116.816406 268.539062 109.539062 276.644531 116.632812 C 276.644531 116.632812 279.082031 118.214844 279.457031 119.765625 C 279.457031 119.765625 282.101562 123.722656 279.621094 129.824219 L 279.457031 133.289062 L 278.609375 145.074219 L 257.398438 144.480469 " fill-opacity="1" fill-rule="nonzero"/><path fill="#fbcaa5" d="M 268.296875 140.503906 C 268.296875 140.503906 262.257812 139.792969 257.242188 144.171875 C 257.242188 144.171875 249.714844 136.042969 254.578125 129.945312 L 255.984375 124.632812 L 257.554688 124.941406 L 258.96875 122.914062 L 258.8125 124.941406 L 264.453125 126.035156 L 267.742188 125.414062 C 267.742188 125.414062 272.011719 128.011719 271.847656 131.804688 C 271.847656 131.804688 275.484375 131.472656 273.003906 134.9375 C 273.003906 134.9375 272.839844 136.585938 270.523438 135.925781 C 270.523438 135.925781 270.6875 137.410156 272.507812 136.914062 L 271.851562 140.796875 C 271.851562 140.796875 270.371094 140.46875 268.296875 140.503906 " fill-opacity="1" fill-rule="nonzero"/><path fill="#f68711" d="M 253.007812 122.601562 L 257.242188 123.695312 L 259.277344 121.820312 L 259.90625 124.160156 L 264.921875 125.414062 L 266.964844 124.160156 C 266.964844 124.160156 263.042969 120.097656 254.578125 120.566406 L 253.007812 122.601562 " fill-opacity="1" fill-rule="nonzero"/><path fill="#434c9e" d="M 257.554688 129.554688 C 257.554688 130.894531 256.292969 131.976562 254.730469 131.976562 C 253.171875 131.976562 251.910156 130.894531 251.910156 129.554688 C 251.910156 128.21875 253.171875 127.132812 254.730469 127.132812 C 256.292969 127.132812 257.554688 128.21875 257.554688 129.554688 " fill-opacity="1" fill-rule="nonzero"/><path fill="#434c9e" d="M 266.804688 131.585938 C 266.804688 132.925781 265.367188 134.007812 263.589844 134.007812 C 261.816406 134.007812 260.375 132.925781 260.375 131.585938 C 260.375 130.25 261.816406 129.164062 263.589844 129.164062 C 265.367188 129.164062 266.804688 130.25 266.804688 131.585938 " fill-opacity="1" fill-rule="nonzero"/><path fill="#434c9e" d="M 266.160156 131.351562 L 265.863281 132.449219 L 271.042969 132.757812 L 271.042969 131.820312 L 266.160156 131.351562 " fill-opacity="1" fill-rule="nonzero"/><path fill="#434c9e" d="M 256.769531 129.636719 C 256.769531 129.636719 259.589844 128.855469 260.691406 130.730469 L 261.316406 130.257812 C 261.316406 130.257812 260.0625 128.539062 256.769531 128.855469 L 256.769531 129.636719 " fill-opacity="1" fill-rule="nonzero"/><path fill="#434c9e" d="M 258.96875 135.886719 L 257.871094 136.355469 L 255.042969 134.480469 L 258.496094 130.257812 L 256.613281 134.007812 L 258.96875 135.886719 " fill-opacity="1" fill-rule="nonzero"/><path fill="#434c9e" d="M 255.203125 137.449219 C 255.203125 137.449219 258.339844 140.105469 262.574219 138.074219 C 262.574219 138.074219 258.496094 143.078125 255.203125 137.449219 " fill-opacity="1" fill-rule="nonzero"/><path fill="#fde4cf" d="M 265.863281 131.667969 C 265.863281 132.703125 264.777344 133.542969 263.433594 133.542969 C 262.089844 133.542969 261.003906 132.703125 261.003906 131.667969 C 261.003906 130.628906 262.089844 129.792969 263.433594 129.792969 C 264.777344 129.792969 265.863281 130.628906 265.863281 131.667969 " fill-opacity="1" fill-rule="nonzero"/><path fill="#fde4cf" d="M 256.941406 129.65625 C 256.941406 130.617188 255.957031 131.398438 254.738281 131.398438 C 253.523438 131.398438 252.535156 130.617188 252.535156 129.65625 C 252.535156 128.695312 253.523438 127.914062 254.738281 127.914062 C 255.957031 127.914062 256.941406 128.695312 256.941406 129.65625 " fill-opacity="1" fill-rule="nonzero"/><path fill="#434c9e" d="M 262.101562 127.601562 L 262.101562 128.695312 C 262.101562 128.695312 264.609375 128.226562 266.179688 129.007812 C 266.179688 129.007812 265.078125 127.445312 262.101562 127.601562 " fill-opacity="1" fill-rule="nonzero"/><path fill="#434c9e" d="M 255.828125 125.878906 C 255.828125 125.878906 257.554688 125.570312 258.96875 126.976562 L 258.339844 127.753906 L 255.828125 125.878906 " fill-opacity="1" fill-rule="nonzero"/><path fill="#434c9e" d="M 262.855469 131.425781 C 262.746094 131.824219 262.335938 132.066406 261.933594 131.957031 C 261.535156 131.855469 261.296875 131.445312 261.398438 131.046875 C 261.503906 130.648438 261.914062 130.40625 262.316406 130.511719 C 262.71875 130.613281 262.953125 131.023438 262.855469 131.425781 " fill-opacity="1" fill-rule="nonzero"/><path fill="#434c9e" d="M 256.636719 129.859375 C 256.53125 130.261719 256.121094 130.5 255.71875 130.398438 C 255.320312 130.289062 255.078125 129.882812 255.183594 129.484375 C 255.289062 129.082031 255.699219 128.84375 256.101562 128.945312 C 256.496094 129.050781 256.738281 129.460938 256.636719 129.859375 " fill-opacity="1" fill-rule="nonzero"/><path fill="#89a8d2" d="M 253.523438 214.769531 L 251.96875 199.902344 L 252.902344 198.355469 L 260.75 203.847656 L 256.316406 215.695312 L 253.523438 214.769531 " fill-opacity="1" fill-rule="nonzero"/><path fill="#89a8d2" d="M 254.140625 184.726562 L 256.628906 182.25 L 254.140625 175.125 L 261.910156 174.507812 C 261.910156 174.507812 258.5625 179.3125 259.113281 181.632812 L 254.765625 188.132812 L 254.140625 184.726562 " fill-opacity="1" fill-rule="nonzero"/><path fill="#89a8d2" d="M 258.183594 194.019531 L 261.910156 197.738281 L 260.863281 190.488281 L 258.183594 194.019531 " fill-opacity="1" fill-rule="nonzero"/><path fill="#ffffff" d="M 260.976562 173.269531 C 260.976562 173.269531 256.628906 170.175781 255.078125 163.667969 C 255.078125 163.667969 255.695312 170.480469 252.28125 172.03125 L 252.589844 173.582031 L 260.976562 173.269531 " fill-opacity="1" fill-rule="nonzero"/><path fill="#ffffff" d="M 274.109375 171.304688 L 277.128906 167.695312 L 277.128906 173.269531 L 274.335938 172.648438 L 274.109375 171.304688 " fill-opacity="1" fill-rule="nonzero"/><path fill="#c38a59" d="M 312.96875 157.484375 C 312.96875 157.484375 315.839844 159.511719 317.152344 157.011719 C 317.152344 157.011719 319.300781 154.03125 314.164062 154.75 C 314.164062 154.75 315.121094 147.359375 311.414062 145.09375 C 311.414062 145.09375 306.753906 142 299.824219 139.613281 C 299.824219 139.613281 297.550781 141.882812 297.792969 146.527344 C 297.792969 146.527344 291.816406 155.9375 298.628906 161.179688 C 298.628906 161.179688 299.703125 162.613281 305.679688 162.132812 C 305.679688 162.132812 311.65625 160.703125 312.96875 157.484375 " fill-opacity="1" fill-rule="nonzero"/><path fill="#c38a59" d="M 296.355469 147.71875 C 296.355469 147.71875 295.878906 144.742188 294.566406 145.808594 C 294.566406 145.808594 294.207031 147.003906 295.519531 148.789062 L 296.355469 147.71875 " fill-opacity="1" fill-rule="nonzero"/><path fill="#434c9e" d="M 314.046875 155.816406 C 314.046875 155.816406 318.585938 155.460938 315.238281 157.484375 C 315.238281 157.484375 316.792969 156.652344 314.046875 155.816406 " fill-opacity="1" fill-rule="nonzero"/><path fill="#434c9e" d="M 304.84375 150.453125 C 304.84375 150.785156 304.546875 151.054688 304.179688 151.054688 C 303.820312 151.054688 303.523438 150.785156 303.523438 150.453125 C 303.523438 150.125 303.820312 149.859375 304.179688 149.859375 C 304.546875 149.859375 304.84375 150.125 304.84375 150.453125 " fill-opacity="1" fill-rule="nonzero"/><path fill="#434c9e" d="M 301.253906 148.070312 C 301.253906 148.464844 300.960938 148.785156 300.597656 148.785156 C 300.234375 148.785156 299.941406 148.464844 299.941406 148.070312 C 299.941406 147.679688 300.234375 147.359375 300.597656 147.359375 C 300.960938 147.359375 301.253906 147.679688 301.253906 148.070312 " fill-opacity="1" fill-rule="nonzero"/><path fill="#434c9e" d="M 303.050781 148.195312 L 299.105469 152.480469 L 300.78125 154.625 L 299.703125 154.984375 C 299.703125 154.984375 296.355469 152.480469 298.984375 151.171875 C 298.984375 151.171875 302.691406 149.027344 303.050781 148.195312 " fill-opacity="1" fill-rule="nonzero"/><path fill="#434c9e" d="M 300.179688 144.144531 C 300.179688 144.144531 302.570312 143.550781 303.765625 145.453125 L 303.050781 146.410156 C 303.050781 146.410156 301.375 143.785156 300.179688 144.144531 " fill-opacity="1" fill-rule="nonzero"/><path fill="#434c9e" d="M 306.394531 146.644531 L 305.679688 147.476562 L 308.546875 149.621094 L 306.394531 146.644531 " fill-opacity="1" fill-rule="nonzero"/><path fill="#434c9e" d="M 296.597656 154.148438 C 296.597656 154.148438 298.03125 158.203125 301.851562 158.085938 C 301.851562 158.085938 297.316406 160.703125 296.597656 154.148438 " fill-opacity="1" fill-rule="nonzero"/><path fill="#ffffff" d="M 292.050781 206.65625 L 312.625 207.886719 C 312.625 207.886719 312.832031 205.835938 316.121094 202.964844 C 316.121094 202.964844 317.972656 191.476562 316.53125 180.605469 C 316.53125 180.605469 320.441406 192.710938 317.765625 202.757812 L 321.0625 202.964844 C 321.0625 202.964844 332.171875 175.890625 313.242188 166.25 L 313.65625 181.632812 C 313.65625 181.632812 308.097656 183.890625 307.273438 180.195312 C 307.273438 180.195312 306.039062 177.527344 304.1875 179.785156 C 304.1875 179.785156 299.867188 181.015625 298.632812 176.910156 L 301.511719 164.402344 C 301.511719 164.402344 292.253906 165.839844 283.40625 179.992188 C 283.40625 179.992188 284.859375 182.054688 284.4375 184.09375 L 286.492188 186.144531 L 294.308594 183.070312 C 294.308594 183.070312 292.875 189.425781 292.050781 206.65625 " fill-opacity="1" fill-rule="nonzero"/><path fill="#ffffff" d="M 303.757812 164.316406 L 302.523438 164.316406 L 300.671875 174.777344 C 300.671875 174.777344 304.371094 175.597656 304.582031 177.855469 C 304.582031 177.855469 306.636719 177.238281 306.636719 178.265625 C 306.636719 178.265625 310.339844 176.828125 311.988281 178.882812 L 312.398438 166.574219 L 310.960938 165.546875 C 310.960938 165.546875 310.132812 170.472656 306.226562 170.261719 C 306.226562 170.261719 302.316406 171.082031 303.757812 164.316406 " fill-opacity="1" fill-rule="nonzero"/><path fill="#ffffff" d="M 309.746094 165.222656 L 310.570312 166.042969 C 310.570312 166.042969 308.917969 169.734375 306.660156 169.324219 C 306.660156 169.324219 304.1875 168.914062 304.597656 165.015625 C 304.597656 165.015625 305.628906 167.480469 306.863281 167.480469 C 306.863281 167.480469 308.507812 167.070312 309.746094 165.222656 " fill-opacity="1" fill-rule="nonzero"/><path fill="#8cc724" d="M 307.683594 126.867188 C 307.683594 126.867188 318.386719 127.886719 325.175781 134.449219 L 322.292969 141.632812 C 322.292969 141.632812 315.097656 133.839844 304.808594 131.992188 L 307.683594 126.867188 " fill-opacity="1" fill-rule="nonzero"/><path fill="#8cc724" d="M 295.136719 135.683594 C 295.136719 135.683594 313.527344 139.992188 324.96875 153.9375 L 320.859375 145.941406 C 320.859375 145.941406 317.5625 141.222656 302.335938 135.476562 L 295.136719 135.683594 " fill-opacity="1" fill-rule="nonzero"/><path fill="#41b23b" d="M 302.953125 134.660156 C 302.953125 134.660156 315.710938 139.171875 321.472656 144.914062 L 322.089844 142.449219 C 322.089844 142.449219 315.917969 135.277344 304.394531 132.402344 L 302.953125 134.660156 " fill-opacity="1" fill-rule="nonzero"/><path fill="#849ccb" d="M 293.285156 207.886719 L 312.625 209.121094 C 312.625 209.121094 317.765625 205.425781 314.476562 210.960938 C 314.476562 210.960938 311.800781 214.246094 316.328125 212.605469 C 316.328125 212.605469 315.710938 226.761719 315.710938 232.296875 C 315.710938 232.296875 316.742188 248.707031 315.507812 252.398438 C 315.507812 252.398438 309.949219 254.242188 307.070312 252.601562 C 307.070312 252.601562 307.273438 246.449219 305.832031 240.707031 C 305.832031 240.707031 303.15625 230.863281 303.15625 222.453125 C 303.15625 222.453125 303.777344 215.273438 300.488281 222.039062 L 294.519531 246.859375 L 287.316406 245.835938 L 286.082031 237.835938 L 286.492188 234.550781 L 290.609375 233.324219 L 288.546875 225.324219 L 293.285156 207.886719 " fill-opacity="1" fill-rule="nonzero"/><path fill="#ffffff" d="M 307.410156 253.6875 C 307.410156 253.6875 313.035156 255.269531 314.886719 254.039062 C 314.886719 254.039062 321.0625 258.757812 319.003906 259.574219 C 319.003906 259.574219 310.15625 258.757812 307.480469 254.859375 L 307.410156 253.6875 " fill-opacity="1" fill-rule="nonzero"/><path fill="#ffffff" d="M 287.726562 246.65625 L 292.664062 247.679688 L 291.84375 250.144531 L 288.34375 251.574219 L 287.726562 246.65625 " fill-opacity="1" fill-rule="nonzero"/><path fill="#ffffff" d="M 283.832031 251.160156 L 282.375 253.628906 C 282.375 253.628906 278.265625 255.269531 283.40625 250.144531 L 283.832031 251.160156 " fill-opacity="1" fill-rule="nonzero"/><path fill="#c38a59" d="M 313.859375 207.066406 C 313.859375 207.066406 315.917969 204.605469 317.355469 203.578125 L 320.648438 203.988281 C 320.648438 203.988281 320.238281 210.550781 317.5625 211.988281 L 317.152344 210.757812 C 317.152344 210.757812 312.003906 215.476562 316.328125 209.730469 C 316.328125 209.730469 317.972656 206.246094 315.917969 206.65625 L 313.859375 207.066406 " fill-opacity="1" fill-rule="nonzero"/><path fill="#e5ad93" d="M 113.8125 136.917969 L 117.523438 139.585938 L 118.964844 134.660156 L 115.667969 130.964844 C 115.667969 130.964844 121.230469 136.710938 128.03125 134.046875 C 128.03125 134.046875 132.355469 127.265625 129.675781 123.15625 C 129.675781 123.15625 128.03125 119.875 128.441406 117.203125 C 128.441406 117.203125 128.234375 114.328125 127 112.066406 L 123.910156 117.410156 L 123.910156 113.710938 L 120.820312 118.230469 L 120.199219 115.558594 L 116.695312 122.539062 L 116.492188 117.613281 L 114.84375 120.074219 L 115.046875 123.566406 L 112.988281 124.59375 C 112.988281 124.59375 110.515625 123.566406 109.691406 125.210938 C 108.871094 126.855469 109.484375 125.621094 109.484375 125.621094 C 109.484375 125.621094 109.484375 128.5 112.785156 129.320312 L 112.371094 130.757812 L 113.8125 136.917969 " fill-opacity="1" fill-rule="nonzero"/><path fill="#ffffff" d="M 102.484375 168.585938 L 110.023438 179.851562 C 110.023438 179.851562 112.175781 179.761719 112.980469 183.277344 L 117.613281 179.078125 C 117.613281 179.078125 107.703125 175.523438 108.574219 163.382812 C 108.574219 163.382812 110.3125 141.132812 124.515625 142.578125 L 128.285156 143.445312 C 128.285156 143.445312 124.226562 138.53125 119.589844 137.664062 L 118.71875 141.132812 C 118.71875 141.132812 113.789062 140.265625 113.214844 138.535156 C 113.214844 138.535156 101.328125 143.445312 102.484375 168.585938 " fill-opacity="1" fill-rule="nonzero"/><path fill="#e4a369" d="M 121.617188 110.792969 C 119.007812 115.417969 115.816406 111.949219 115.816406 111.949219 L 110.894531 123.21875 L 113.503906 122.640625 L 113.789062 120.039062 L 116.980469 114.839844 L 117.851562 118.015625 L 120.460938 113.394531 L 121.035156 115.128906 L 124.226562 111.949219 L 125.09375 113.683594 L 126.800781 111.480469 L 125.878906 109.824219 L 122.210938 110.128906 L 121.617188 110.792969 " fill-opacity="1" fill-rule="nonzero"/><path fill="#e4a369" d="M 111.179688 130.152344 C 111.179688 130.152344 107.125 129.285156 108.574219 124.953125 L 114.082031 111.375 C 114.082031 111.375 117.167969 106.304688 121.824219 108.460938 L 122.773438 109.058594 L 126.253906 108.773438 C 126.253906 108.773438 122.773438 102.125 113.214844 104.144531 C 113.214844 104.144531 104.804688 106.171875 105.09375 113.394531 C 105.09375 113.394531 99.882812 120.617188 109.152344 131.886719 L 111.179688 130.152344 " fill-opacity="1" fill-rule="nonzero"/><path fill="#434c9e" d="M 120.171875 120.039062 L 123.988281 118.496094 L 124.226562 119.933594 L 120.171875 120.039062 " fill-opacity="1" fill-rule="nonzero"/><path fill="#434c9e" d="M 126.046875 117.960938 L 126.691406 119.039062 L 128.863281 117.742188 L 126.046875 117.960938 " fill-opacity="1" fill-rule="nonzero"/><path fill="#434c9e" d="M 124.097656 122.382812 C 124.097656 122.742188 123.804688 123.03125 123.445312 123.03125 C 123.085938 123.03125 122.796875 122.742188 122.796875 122.382812 C 122.796875 122.027344 123.085938 121.734375 123.445312 121.734375 C 123.804688 121.734375 124.097656 122.027344 124.097656 122.382812 " fill-opacity="1" fill-rule="nonzero"/><path fill="#434c9e" d="M 128.75 121.140625 C 128.75 121.46875 128.410156 121.734375 127.992188 121.734375 C 127.574219 121.734375 127.234375 121.46875 127.234375 121.140625 C 127.234375 120.816406 127.574219 120.546875 127.992188 120.546875 C 128.410156 120.546875 128.75 120.816406 128.75 121.140625 " fill-opacity="1" fill-rule="nonzero"/><path fill="#434c9e" d="M 126.371094 120.765625 C 126.371094 120.765625 126.371094 123.464844 129.402344 125.730469 C 129.402344 125.730469 130.15625 126.917969 126.585938 127.242188 L 126.800781 126.378906 L 128.210938 125.839844 C 128.210938 125.839844 125.289062 123.355469 126.371094 120.765625 " fill-opacity="1" fill-rule="nonzero"/><path fill="#434c9e" d="M 124.527344 130.152344 C 124.527344 130.152344 127.882812 130.585938 129.183594 128.539062 C 129.183594 128.539062 128.644531 133.179688 124.527344 130.152344 " fill-opacity="1" fill-rule="nonzero"/><path fill="#434c9e" d="M 111.644531 125.621094 C 111.644531 125.621094 110.996094 124.542969 110.023438 125.621094 C 110.023438 125.621094 109.699219 126.378906 110.34375 127.027344 C 110.34375 127.027344 110.453125 125.191406 111.644531 125.621094 " fill-opacity="1" fill-rule="nonzero"/><path fill="#e4a369" d="M 128.425781 113.429688 L 129.074219 119.039062 C 129.074219 119.039062 130.59375 115.261719 128.425781 113.429688 " fill-opacity="1" fill-rule="nonzero"/><path fill="#434c9e" d="M 111.644531 139.222656 C 111.644531 139.222656 120.738281 147.535156 120.308594 139.4375 C 120.308594 139.4375 123.554688 150.445312 111.644531 139.222656 " fill-opacity="1" fill-rule="nonzero"/><path fill="#e4a369" d="M 98.21875 217.222656 C 98.21875 217.222656 100.0625 212.621094 103.296875 211.929688 L 106.527344 214.230469 C 106.527344 214.230469 100.292969 221.140625 101.679688 234.949219 L 99.371094 234.71875 C 99.371094 234.71875 96.140625 220.675781 101.910156 216.304688 L 99.371094 218.140625 L 98.21875 217.222656 " fill-opacity="1" fill-rule="nonzero"/><path fill="#434c9e" d="M 278.960938 128.339844 C 278.960938 128.339844 299.636719 144.5 276.644531 138.234375 L 278.960938 128.339844 " fill-opacity="1" fill-rule="nonzero"/><path fill="#f68711" d="M 269.199219 125.371094 C 269.199219 125.371094 273.167969 128.011719 273.003906 131.144531 C 273.003906 131.144531 276.972656 132.132812 273.335938 136.089844 C 273.386719 136.082031 276.757812 136.769531 276.972656 131.144531 C 276.972656 131.144531 272.34375 125.703125 269.363281 125.042969 " fill-opacity="1" fill-rule="nonzero"/><path fill="#f68711" d="M 274.328125 137.078125 C 274.328125 137.078125 277.140625 136.585938 277.800781 132.296875 C 277.800781 132.296875 280.28125 135.925781 277.800781 139.71875 C 277.800781 139.71875 277.46875 141.367188 277.636719 142.523438 L 274.824219 141.039062 L 274.160156 137.574219 " fill-opacity="1" fill-rule="nonzero"/><path fill="#41b23b" d="M 264.238281 115.972656 C 264.238281 115.972656 273.832031 117.785156 279.125 126.527344 C 279.125 126.527344 281.9375 121.578125 274.824219 116.300781 C 274.824219 116.300781 270.855469 112.179688 264.238281 115.972656 " fill-opacity="1" fill-rule="nonzero"/><path fill="#41b23b" d="M 247.859375 116.136719 C 247.859375 116.136719 259.441406 113.992188 272.507812 123.558594 C 272.507812 123.558594 285.410156 132.792969 286.070312 138.730469 C 286.070312 138.730469 280.117188 130.320312 270.6875 123.886719 C 270.6875 123.886719 259.9375 115.972656 250.339844 117.292969 C 250.339844 117.292969 249.183594 117.785156 249.679688 118.609375 C 249.679688 118.609375 246.867188 116.960938 247.859375 116.136719 " fill-opacity="1" fill-rule="nonzero"/><path fill="#41b23b" d="M 267.710938 117.042969 C 267.710938 117.726562 267.121094 118.28125 266.386719 118.28125 C 265.65625 118.28125 265.0625 117.726562 265.0625 117.042969 C 265.0625 116.359375 265.65625 115.808594 266.386719 115.808594 C 267.121094 115.808594 267.710938 116.359375 267.710938 117.042969 " fill-opacity="1" fill-rule="nonzero"/><path fill="#41b23b" d="M 270.6875 121.085938 C 270.6875 121.902344 269.984375 122.570312 269.117188 122.570312 C 268.25 122.570312 267.546875 121.902344 267.546875 121.085938 C 267.546875 120.265625 268.25 119.601562 269.117188 119.601562 C 269.984375 119.601562 270.6875 120.265625 270.6875 121.085938 " fill-opacity="1" fill-rule="nonzero"/><path fill="#41b23b" d="M 276.148438 121.578125 C 276.148438 122.488281 275.519531 123.226562 274.742188 123.226562 C 273.964844 123.226562 273.335938 122.488281 273.335938 121.578125 C 273.335938 120.667969 273.964844 119.929688 274.742188 119.929688 C 275.519531 119.929688 276.148438 120.667969 276.148438 121.578125 " fill-opacity="1" fill-rule="nonzero"/><path fill="#41b23b" d="M 278.296875 126.441406 C 278.296875 127.21875 277.746094 127.84375 277.058594 127.84375 C 276.375 127.84375 275.816406 127.21875 275.816406 126.441406 C 275.816406 125.667969 276.375 125.042969 277.058594 125.042969 C 277.746094 125.042969 278.296875 125.667969 278.296875 126.441406 " fill-opacity="1" fill-rule="nonzero"/><path fill="#434c9e" d="M 264.21875 141.683594 C 264.21875 141.683594 269.011719 140.265625 269.371094 136.90625 L 270.433594 137.433594 C 270.433594 137.433594 270.253906 140.265625 264.21875 141.683594 " fill-opacity="1" fill-rule="nonzero"/><path fill="#434c9e" d="M 322.800781 178.136719 C 322.800781 180.125 321.183594 181.734375 319.195312 181.734375 C 317.199219 181.734375 315.582031 180.125 315.582031 178.136719 C 315.582031 176.152344 317.199219 174.542969 319.195312 174.542969 C 321.183594 174.542969 322.800781 176.152344 322.800781 178.136719 " fill-opacity="1" fill-rule="nonzero"/><path fill="#434c9e" d="M 119.078125 190.898438 C 119.078125 192.746094 117.574219 194.246094 115.722656 194.246094 C 113.871094 194.246094 112.371094 192.746094 112.371094 190.898438 C 112.371094 189.054688 113.871094 187.558594 115.722656 187.558594 C 117.574219 187.558594 119.078125 189.054688 119.078125 190.898438 " fill-opacity="1" fill-rule="nonzero"/><path fill="#434c9e" d="M 77.546875 175.460938 C 77.546875 177.539062 75.855469 179.230469 73.765625 179.230469 C 71.675781 179.230469 69.984375 177.539062 69.984375 175.460938 C 69.984375 173.378906 71.675781 171.6875 73.765625 171.6875 C 75.855469 171.6875 77.546875 173.378906 77.546875 175.460938 " fill-opacity="1" fill-rule="nonzero"/><path fill="#434c9e" d="M 112.125 151.0625 C 112.125 153.144531 110.433594 154.832031 108.347656 154.832031 C 106.257812 154.832031 104.566406 153.144531 104.566406 151.0625 C 104.566406 148.980469 106.257812 147.292969 108.347656 147.292969 C 110.433594 147.292969 112.125 148.980469 112.125 151.0625 " fill-opacity="1" fill-rule="nonzero"/><g fill="#004aad" fill-opacity="1"><g transform="translate(57.071709, 54.387988)"><g><path d="M 4.207031 7.976562 C 6.230469 8.03125 7.621094 6.96875 8.496094 5.136719 C 9.097656 3.960938 9.507812 2.324219 9.972656 0.382812 C 12.078125 -0.410156 15.164062 -1.585938 16.832031 -5.820312 C 16.96875 -6.175781 16.121094 -6.558594 15.984375 -6.3125 C 14.699219 -3.277344 12.40625 -1.640625 10.382812 -1.09375 C 11.96875 -6.886719 14.207031 -15.21875 15.191406 -18.304688 C 15.300781 -19.015625 13.523438 -19.398438 12.976562 -18.496094 C 9.726562 -14.453125 4.371094 -15.300781 3.496094 -11.640625 C 3.113281 -10.082031 3.933594 -8.195312 6.503906 -8.085938 C 7.242188 -8.03125 7.40625 -9.371094 6.886719 -9.425781 C 5.628906 -9.617188 5.574219 -10.574219 5.765625 -11.394531 C 6.230469 -13.496094 9.753906 -13.523438 12.324219 -16.3125 C 10.601562 -10.191406 10.109375 -8.222656 8.003906 -0.382812 C 5.328125 0.4375 2.378906 1.3125 1.503906 3.796875 C 0.601562 5.984375 1.886719 7.921875 4.207031 7.976562 Z M 4.261719 6.339844 C 3.386719 6.3125 2.703125 5.519531 3.25 4.179688 C 3.824219 2.675781 5.847656 1.695312 7.621094 1.09375 C 7.242188 3.03125 6.914062 3.90625 6.640625 4.480469 C 6.039062 5.820312 5.054688 6.394531 4.261719 6.339844 Z M 4.261719 6.339844 "/></g></g></g><g fill="#004aad" fill-opacity="1"><g transform="translate(73.406986, 54.387988)"><g><path d="M 6.367188 -11.613281 C 3.195312 -11.503906 0.382812 -8.742188 -0.246094 -5.082031 C -0.957031 -1.121094 1.09375 0.246094 3.386719 0.246094 C 5.164062 0.246094 6.613281 -0.492188 7.757812 -1.75 C 9.78125 -1.230469 12.050781 -1.804688 13.742188 -5.792969 C 13.90625 -6.175781 13.03125 -6.585938 12.894531 -6.3125 C 11.613281 -3.085938 10 -2.566406 8.605469 -2.703125 C 10.820312 -6.367188 11.066406 -11.75 6.367188 -11.613281 Z M 6.148438 -10 C 8.578125 -10.136719 8.195312 -6.695312 6.941406 -4.015625 C 6.285156 -4.289062 5.519531 -3.359375 6.09375 -2.566406 C 5.4375 -1.832031 4.589844 -1.339844 3.742188 -1.339844 C 1.96875 -1.339844 1.804688 -3.25 2.078125 -5 C 2.433594 -7.160156 4.179688 -9.890625 6.148438 -10 Z M 6.148438 -10 "/></g></g></g><g fill="#004aad" fill-opacity="1"><g transform="translate(86.655517, 54.387988)"><g><path d="M 0.4375 -4.78125 C 1.558594 -7.132812 2.132812 -8.960938 2.59375 -10.738281 C 3.25 -9.972656 4.507812 -8.90625 3.824219 -7.921875 C 2.675781 -6.285156 1.53125 -4.480469 1.558594 -2.730469 C 1.558594 -1.09375 2.488281 0.191406 4.425781 0.246094 C 7.269531 0.328125 9.398438 -2.132812 10.957031 -5.792969 C 11.09375 -6.121094 10.246094 -6.585938 10.109375 -6.3125 C 8.632812 -2.785156 6.558594 -1.3125 5.136719 -1.367188 C 4.261719 -1.367188 3.878906 -1.996094 3.878906 -2.867188 C 3.878906 -4.34375 4.945312 -5.984375 6.09375 -7.40625 C 7.242188 -8.851562 4.726562 -10.683594 3.332031 -12.242188 C 4.234375 -15.875 -0.464844 -14.617188 1.804688 -11.476562 C 1.175781 -9.097656 0.710938 -7.675781 -0.410156 -5.21875 C -0.601562 -4.945312 0.300781 -4.507812 0.4375 -4.78125 Z M 0.4375 -4.78125 "/></g></g></g><g fill="#004aad" fill-opacity="1"><g transform="translate(97.117779, 54.387988)"><g><path d="M 7.539062 -11.613281 C 5.683594 -11.640625 3.742188 -9.589844 2.757812 -8.222656 L 3.441406 -10.792969 C 3.414062 -11.558594 1.613281 -11.777344 1.3125 -11.121094 C 0.246094 -6.914062 -0.519531 -4.234375 -1.449219 -0.574219 C -1.53125 0.273438 0.65625 0.21875 0.847656 -0.300781 C 1.394531 -2.730469 1.585938 -3.660156 2.351562 -6.230469 C 3.523438 -8.058594 5.410156 -9.808594 6.585938 -9.808594 C 7.621094 -9.808594 7.433594 -8.632812 7.214844 -7.785156 C 6.859375 -6.3125 6.066406 -3.222656 5.957031 -2.269531 C 5.738281 -0.683594 6.339844 0.273438 8.003906 0.273438 C 10.4375 0.246094 12.40625 -3.277344 13.496094 -5.792969 C 13.660156 -6.175781 12.8125 -6.613281 12.675781 -6.3125 C 11.585938 -3.605469 9.808594 -1.285156 8.632812 -1.285156 C 7.867188 -1.285156 8.140625 -2.511719 8.359375 -3.496094 C 8.660156 -4.863281 9.234375 -6.3125 9.535156 -7.648438 C 10.082031 -9.890625 9.617188 -11.585938 7.539062 -11.613281 Z M 7.539062 -11.613281 "/></g></g></g><g fill="#004aad" fill-opacity="1"><g transform="translate(110.147772, 54.387988)"><g><path d="M 5.984375 -11.503906 C 2.785156 -10.957031 -0.0273438 -7.566406 -0.601562 -4.289062 C -1.09375 -1.53125 0.0273438 0.300781 2.160156 0.246094 C 4.234375 0.191406 5.410156 -1.53125 6.449219 -3.25 C 6.039062 -1.203125 6.859375 0.0546875 8.085938 0.0546875 C 10.628906 0.0546875 12.59375 -2.867188 13.90625 -5.792969 C 14.070312 -6.175781 13.167969 -6.585938 13.058594 -6.285156 C 11.996094 -3.605469 10.082031 -1.476562 8.960938 -1.476562 C 8.304688 -1.476562 8.195312 -2.132812 8.414062 -3.386719 C 8.6875 -4.917969 9.316406 -7.023438 9.644531 -8.222656 C 9.671875 -8.769531 7.949219 -9.261719 7.648438 -8.632812 C 6.640625 -4.289062 3.441406 -0.246094 2.078125 -1.640625 C 1.339844 -2.40625 1.558594 -4.644531 2.566406 -6.503906 C 3.496094 -8.304688 4.972656 -9.671875 6.503906 -9.945312 C 7.675781 -10.164062 9.152344 -9.78125 10.300781 -8.90625 C 10.683594 -8.605469 11.695312 -9.699219 11.421875 -10.054688 C 9.972656 -11.53125 7.675781 -11.804688 5.984375 -11.503906 Z M 5.984375 -11.503906 "/></g></g></g><g fill="#004aad" fill-opacity="1"><g transform="translate(123.560195, 54.387988)"><g><path d="M 5 -18.222656 C 3.167969 -16.886719 1.585938 -13.167969 0.601562 -9.207031 C -0.601562 -4.425781 -0.875 -0.164062 2.511719 0.246094 C 6.011719 0.710938 7.785156 -2.433594 9.316406 -5.792969 C 9.507812 -6.175781 8.605469 -6.585938 8.496094 -6.3125 C 7.648438 -4.371094 5.710938 -1.039062 3.304688 -1.3125 C 1.640625 -1.476562 1.585938 -3.824219 2.1875 -6.640625 C 5.4375 -8.359375 7.539062 -10.984375 8.578125 -13.769531 C 10.136719 -17.921875 7.460938 -20.054688 5 -18.222656 Z M 6.695312 -17.132812 C 7.515625 -17.078125 7.1875 -15.246094 6.148438 -12.921875 C 5.355469 -11.175781 4.070312 -9.535156 2.539062 -8.332031 C 3.058594 -10.328125 3.796875 -12.324219 4.234375 -13.46875 C 5.082031 -15.65625 5.902344 -17.1875 6.695312 -17.132812 Z M 6.695312 -17.132812 "/></g></g></g><g fill="#004aad" fill-opacity="1"><g transform="translate(132.410798, 54.387988)"><g/></g></g><g fill="#004aad" fill-opacity="1"><g transform="translate(138.010752, 54.387988)"><g><path d="M 13.714844 -19.042969 C 10.847656 -19.207031 8.6875 -17.757812 6.941406 -15.601562 C 6.367188 -16.613281 5.929688 -17.675781 5.875 -18.496094 C 5.792969 -19.097656 4.507812 -19.042969 4.589844 -18.46875 C 4.644531 -17.242188 5.273438 -15.65625 6.09375 -14.398438 C 4.808594 -12.351562 4.042969 -9.863281 3.878906 -7.460938 C 3.605469 -3.003906 5.601562 0.328125 9.589844 0.246094 C 13.222656 0.164062 15.601562 -1.613281 17.378906 -5.792969 C 17.542969 -6.148438 16.667969 -6.613281 16.53125 -6.3125 C 14.917969 -2.511719 12.324219 -1.449219 10.246094 -1.421875 C 7.648438 -1.339844 6.121094 -3.386719 6.203125 -7.539062 C 6.230469 -9.152344 6.667969 -10.984375 7.433594 -12.648438 C 10.683594 -10.191406 15.300781 -11.039062 16.53125 -14.097656 C 17.621094 -16.695312 16.285156 -18.90625 13.714844 -19.042969 Z M 13.332031 -17.324219 C 14.671875 -17.242188 15.164062 -15.902344 14.371094 -14.535156 C 13.578125 -12.839844 10.328125 -12.242188 8.222656 -14.070312 C 9.480469 -16.039062 11.066406 -17.460938 13.332031 -17.324219 Z M 13.332031 -17.324219 "/></g></g></g><g fill="#004aad" fill-opacity="1"><g transform="translate(154.892342, 54.387988)"><g><path d="M 0.4375 -4.78125 C 1.558594 -7.132812 2.132812 -8.960938 2.59375 -10.738281 C 3.25 -9.972656 4.507812 -8.90625 3.824219 -7.921875 C 2.675781 -6.285156 1.53125 -4.480469 1.558594 -2.730469 C 1.558594 -1.09375 2.488281 0.191406 4.425781 0.246094 C 7.269531 0.328125 9.398438 -2.132812 10.957031 -5.792969 C 11.09375 -6.121094 10.246094 -6.585938 10.109375 -6.3125 C 8.632812 -2.785156 6.558594 -1.3125 5.136719 -1.367188 C 4.261719 -1.367188 3.878906 -1.996094 3.878906 -2.867188 C 3.878906 -4.34375 4.945312 -5.984375 6.09375 -7.40625 C 7.242188 -8.851562 4.726562 -10.683594 3.332031 -12.242188 C 4.234375 -15.875 -0.464844 -14.617188 1.804688 -11.476562 C 1.175781 -9.097656 0.710938 -7.675781 -0.410156 -5.21875 C -0.601562 -4.945312 0.300781 -4.507812 0.4375 -4.78125 Z M 0.4375 -4.78125 "/></g></g></g><g fill="#004aad" fill-opacity="1"><g transform="translate(165.354599, 54.387988)"><g><path d="M 3.167969 -13.25 C 3.933594 -13.25 4.5625 -13.742188 4.644531 -14.5625 C 4.699219 -15.355469 4.179688 -15.847656 3.441406 -15.875 C 2.703125 -15.875 2.078125 -15.382812 1.996094 -14.5625 C 1.914062 -13.769531 2.460938 -13.25 3.167969 -13.25 Z M 1.09375 0.246094 C 3.742188 0.246094 5.792969 -3.25 6.886719 -5.765625 C 7.050781 -6.175781 6.175781 -6.613281 6.039062 -6.285156 C 5.109375 -3.933594 3.195312 -1.339844 1.804688 -1.285156 C 1.066406 -1.257812 1.203125 -2.105469 1.449219 -3.222656 C 1.941406 -5.300781 2.351562 -6.667969 3.523438 -10.847656 C 3.496094 -11.394531 1.722656 -11.777344 1.421875 -11.121094 C 0.382812 -7.40625 -0.164062 -5.519531 -0.765625 -2.976562 C -1.230469 -0.929688 -0.792969 0.273438 1.09375 0.246094 Z M 1.09375 0.246094 "/></g></g></g><g fill="#004aad" fill-opacity="1"><g transform="translate(171.746719, 54.387988)"><g><path d="M 5.984375 -11.503906 C 2.785156 -10.957031 -0.0273438 -7.566406 -0.601562 -4.289062 C -1.09375 -1.53125 0.0273438 0.300781 2.160156 0.246094 C 4.234375 0.191406 5.410156 -1.53125 6.449219 -3.25 C 6.039062 -1.203125 6.859375 0.0546875 8.085938 0.0546875 C 10.628906 0.0546875 12.59375 -2.867188 13.90625 -5.792969 C 14.070312 -6.175781 13.167969 -6.585938 13.058594 -6.285156 C 11.996094 -3.605469 10.082031 -1.476562 8.960938 -1.476562 C 8.304688 -1.476562 8.195312 -2.132812 8.414062 -3.386719 C 8.6875 -4.917969 9.316406 -7.023438 9.644531 -8.222656 C 9.671875 -8.769531 7.949219 -9.261719 7.648438 -8.632812 C 6.640625 -4.289062 3.441406 -0.246094 2.078125 -1.640625 C 1.339844 -2.40625 1.558594 -4.644531 2.566406 -6.503906 C 3.496094 -8.304688 4.972656 -9.671875 6.503906 -9.945312 C 7.675781 -10.164062 9.152344 -9.78125 10.300781 -8.90625 C 10.683594 -8.605469 11.695312 -9.699219 11.421875 -10.054688 C 9.972656 -11.53125 7.675781 -11.804688 5.984375 -11.503906 Z M 5.984375 -11.503906 "/></g></g></g><g fill="#004aad" fill-opacity="1"><g transform="translate(185.159136, 54.387988)"><g><path d="M 7.539062 -11.613281 C 5.683594 -11.640625 3.742188 -9.589844 2.757812 -8.222656 L 3.441406 -10.792969 C 3.414062 -11.558594 1.613281 -11.777344 1.3125 -11.121094 C 0.246094 -6.914062 -0.519531 -4.234375 -1.449219 -0.574219 C -1.53125 0.273438 0.65625 0.21875 0.847656 -0.300781 C 1.394531 -2.730469 1.585938 -3.660156 2.351562 -6.230469 C 3.523438 -8.058594 5.410156 -9.808594 6.585938 -9.808594 C 7.621094 -9.808594 7.433594 -8.632812 7.214844 -7.785156 C 6.859375 -6.3125 6.066406 -3.222656 5.957031 -2.269531 C 5.738281 -0.683594 6.339844 0.273438 8.003906 0.273438 C 10.4375 0.246094 12.40625 -3.277344 13.496094 -5.792969 C 13.660156 -6.175781 12.8125 -6.613281 12.675781 -6.3125 C 11.585938 -3.605469 9.808594 -1.285156 8.632812 -1.285156 C 7.867188 -1.285156 8.140625 -2.511719 8.359375 -3.496094 C 8.660156 -4.863281 9.234375 -6.3125 9.535156 -7.648438 C 10.082031 -9.890625 9.617188 -11.585938 7.539062 -11.613281 Z M 7.539062 -11.613281 "/></g></g></g><g fill="#004aad" fill-opacity="1"><g transform="translate(198.189127, 54.387988)"><g><path d="M 10.546875 -6.3125 C 9.097656 -2.703125 6.585938 -1.285156 4.507812 -1.367188 C 2.59375 -1.421875 1.886719 -2.839844 2.050781 -4.699219 C 2.324219 -7.515625 4.34375 -10.191406 6.203125 -10 C 7.566406 -9.863281 7.160156 -8.414062 6.257812 -7.40625 C 5.929688 -6.941406 7.648438 -6.585938 8.167969 -7.132812 C 9.972656 -8.6875 9.671875 -11.53125 6.285156 -11.585938 C 2.730469 -11.640625 0.0273438 -8.085938 -0.273438 -4.808594 C -0.519531 -2.296875 0.820312 0.0273438 3.496094 0.21875 L 2.675781 1.667969 C 2.40625 2.132812 2.730469 2.378906 3.113281 2.324219 C 4.316406 2.214844 4.5625 3.003906 4.234375 3.660156 C 3.878906 4.398438 2.867188 4.808594 1.503906 3.960938 C 1.039062 3.6875 0.628906 4.671875 0.957031 4.917969 C 3.085938 6.285156 4.972656 5.492188 5.65625 4.261719 C 6.367188 3.058594 5.957031 1.585938 4.042969 1.421875 L 4.808594 0.164062 C 6.96875 -0.0546875 9.507812 -1.3125 11.367188 -5.792969 C 11.53125 -6.148438 10.65625 -6.613281 10.546875 -6.3125 Z M 10.546875 -6.3125 "/></g></g></g><g fill="#004aad" fill-opacity="1"><g transform="translate(209.088445, 54.387988)"><g><path d="M 5.984375 -11.503906 C 2.785156 -10.957031 -0.0273438 -7.566406 -0.601562 -4.289062 C -1.09375 -1.53125 0.0273438 0.300781 2.160156 0.246094 C 4.234375 0.191406 5.410156 -1.53125 6.449219 -3.25 C 6.039062 -1.203125 6.859375 0.0546875 8.085938 0.0546875 C 10.628906 0.0546875 12.59375 -2.867188 13.90625 -5.792969 C 14.070312 -6.175781 13.167969 -6.585938 13.058594 -6.285156 C 11.996094 -3.605469 10.082031 -1.476562 8.960938 -1.476562 C 8.304688 -1.476562 8.195312 -2.132812 8.414062 -3.386719 C 8.6875 -4.917969 9.316406 -7.023438 9.644531 -8.222656 C 9.671875 -8.769531 7.949219 -9.261719 7.648438 -8.632812 C 6.640625 -4.289062 3.441406 -0.246094 2.078125 -1.640625 C 1.339844 -2.40625 1.558594 -4.644531 2.566406 -6.503906 C 3.496094 -8.304688 4.972656 -9.671875 6.503906 -9.945312 C 7.675781 -10.164062 9.152344 -9.78125 10.300781 -8.90625 C 10.683594 -8.605469 11.695312 -9.699219 11.421875 -10.054688 C 9.972656 -11.53125 7.675781 -11.804688 5.984375 -11.503906 Z M 5.984375 -11.503906 "/></g></g></g><g fill="#004aad" fill-opacity="1"><g transform="translate(222.500862, 54.387988)"><g><path d="M 3.550781 0.273438 C 5 0.300781 6.449219 -0.355469 7.214844 -1.558594 C 8.960938 -1.449219 10.929688 -2.351562 12.378906 -5.792969 C 12.542969 -6.148438 11.667969 -6.585938 11.558594 -6.3125 C 10.410156 -3.496094 8.988281 -2.648438 7.675781 -2.648438 C 8.496094 -5.574219 6.367188 -7.59375 6.09375 -11.230469 C 7.132812 -12.460938 5.464844 -13.523438 3.851562 -12.078125 C 2.214844 -10.65625 0.847656 -8.140625 -0.410156 -5.21875 C -0.546875 -4.917969 0.300781 -4.480469 0.4375 -4.78125 C 1.640625 -7.460938 2.675781 -9.507812 4.179688 -10.984375 C 4.179688 -8.441406 5.902344 -5.957031 5.765625 -4.042969 C 5.027344 -4.152344 4.589844 -2.867188 5.328125 -2.269531 C 5.054688 -1.804688 4.398438 -1.367188 3.714844 -1.339844 C 2.675781 -1.339844 1.941406 -2.214844 2.296875 -3.796875 C 2.214844 -4.179688 1.121094 -4.234375 0.902344 -3.578125 C 0.328125 -1.203125 1.777344 0.246094 3.550781 0.273438 Z M 3.550781 0.273438 "/></g></g></g><g fill="#004aad" fill-opacity="1"><g transform="translate(234.383571, 54.387988)"><g/></g></g><g fill="#004aad" fill-opacity="1"><g transform="translate(239.983519, 54.387988)"><g><path d="M 6.667969 -20.328125 C 6.640625 -20.902344 5.628906 -20.710938 5.628906 -20.328125 C 5.574219 -19.042969 5.65625 -17.976562 6.039062 -17.050781 C 4.398438 -14.78125 5.109375 -11.3125 7.921875 -10.355469 C 5.109375 -10.164062 2.566406 -7.894531 2.324219 -4.753906 C 2.023438 -1.804688 4.425781 0.164062 7.296875 0.246094 C 10.464844 0.328125 13.46875 -1.121094 15.355469 -5.792969 C 15.492188 -6.175781 14.644531 -6.585938 14.507812 -6.3125 C 12.839844 -2.511719 10.328125 -1.367188 7.839844 -1.421875 C 5.929688 -1.449219 4.425781 -2.730469 4.671875 -4.835938 C 4.972656 -8.25 8.523438 -9.371094 10.792969 -9.179688 C 11.3125 -9.207031 11.53125 -10.492188 11.039062 -10.65625 C 8.332031 -10.957031 6.777344 -13.222656 7.40625 -15.082031 C 8.25 -14.070312 9.589844 -13.496094 10.984375 -13.386719 C 13.25 -13.222656 14.507812 -14.453125 14.589844 -15.984375 C 14.726562 -19.234375 9.589844 -20.027344 6.996094 -17.867188 C 6.722656 -18.578125 6.640625 -19.480469 6.667969 -20.328125 Z M 8.085938 -16.421875 C 9.371094 -17.921875 12.515625 -17.757812 12.515625 -16.066406 C 12.488281 -15.410156 11.96875 -14.890625 10.902344 -14.972656 C 9.78125 -15.027344 8.824219 -15.546875 8.085938 -16.421875 Z M 8.085938 -16.421875 "/></g></g></g><g fill="#004aad" fill-opacity="1"><g transform="translate(254.843705, 54.387988)"><g><path d="M 13.386719 0.273438 C 15.738281 0.21875 17.757812 -3.277344 18.851562 -5.792969 C 19.015625 -6.175781 18.140625 -6.613281 18.003906 -6.3125 C 17.050781 -3.851562 15.21875 -1.3125 13.960938 -1.285156 C 12.566406 -1.257812 14.5625 -6.09375 14.972656 -8.03125 C 15.464844 -10.328125 14.972656 -11.585938 13.058594 -11.613281 C 11.230469 -11.640625 9.808594 -9.945312 8.824219 -8.46875 C 9.261719 -10.273438 8.523438 -11.585938 7.023438 -11.613281 C 5.273438 -11.640625 3.660156 -9.808594 2.730469 -8.195312 C 3.003906 -9.097656 3.140625 -9.726562 3.441406 -10.792969 C 3.496094 -11.53125 1.585938 -11.75 1.3125 -11.148438 C 0.273438 -6.914062 -0.4375 -4.289062 -1.449219 -0.65625 C -1.613281 0.21875 0.65625 0.246094 0.820312 -0.300781 C 1.257812 -2.214844 1.667969 -3.878906 2.1875 -5.710938 C 3.25 -7.867188 4.945312 -9.835938 5.984375 -9.808594 C 6.886719 -9.808594 6.722656 -8.660156 6.53125 -7.839844 C 5.765625 -4.753906 5.21875 -2.59375 4.671875 -0.4375 C 4.644531 0.21875 6.667969 0.21875 6.914062 -0.382812 C 7.269531 -1.585938 7.703125 -3.796875 8.167969 -5.492188 C 8.796875 -7.515625 10.957031 -9.835938 12.132812 -9.863281 C 13.085938 -9.863281 12.785156 -8.605469 12.566406 -7.757812 C 12.1875 -6.148438 11.476562 -3.714844 11.285156 -2.488281 C 11.011719 -0.792969 11.585938 0.300781 13.386719 0.273438 Z M 13.386719 0.273438 "/></g></g></g><g fill="#004aad" fill-opacity="1"><g transform="translate(273.200394, 54.387988)"><g/></g></g><g fill="#004aad" fill-opacity="1"><g transform="translate(278.800354, 54.387988)"><g><path d="M 4.78125 0.273438 C 7.894531 0.246094 9.480469 -2.59375 11.011719 -6.394531 C 12.566406 -6.203125 14.070312 -5.984375 14.863281 -5.929688 C 14.34375 -3.878906 13.878906 -2.078125 13.632812 -0.4375 C 13.714844 0.191406 15.683594 0.21875 15.902344 -0.410156 C 16.09375 -2.132812 16.667969 -4.097656 17.078125 -5.984375 C 19.152344 -6.148438 21.367188 -6.96875 22.621094 -8.6875 C 22.976562 -9.179688 22.460938 -9.917969 22.023438 -9.453125 C 20.902344 -8.140625 19.179688 -7.566406 17.378906 -7.40625 C 17.8125 -9.125 18.769531 -13.414062 19.125 -16.121094 C 19.480469 -18.988281 16.777344 -19.78125 14.425781 -17.40625 C 12.648438 -15.546875 11.011719 -11.75 9.507812 -8.085938 C 5.984375 -8.496094 2.460938 -6.886719 1.695312 -3.714844 C 1.148438 -1.476562 2.214844 0.273438 4.78125 0.273438 Z M 15.21875 -7.40625 C 14.425781 -7.433594 12.949219 -7.648438 11.613281 -7.839844 C 12.757812 -10.792969 14.152344 -14.753906 15.929688 -16.640625 C 16.777344 -17.570312 17.515625 -17.351562 17.296875 -16.148438 C 16.722656 -13.222656 15.683594 -9.207031 15.21875 -7.40625 Z M 4.863281 -1.367188 C 3.742188 -1.367188 3.496094 -2.460938 3.851562 -3.605469 C 4.535156 -5.738281 6.339844 -6.640625 8.90625 -6.558594 C 7.621094 -3.605469 6.695312 -1.394531 4.863281 -1.367188 Z M 4.863281 -1.367188 "/></g></g></g><g fill="#004aad" fill-opacity="1"><g transform="translate(300.516935, 54.387988)"><g><path d="M 10.546875 -6.3125 C 9.097656 -2.703125 6.585938 -1.285156 4.507812 -1.367188 C 2.59375 -1.421875 1.886719 -2.839844 2.050781 -4.699219 C 2.324219 -7.515625 4.34375 -10.191406 6.203125 -10 C 7.566406 -9.863281 7.160156 -8.414062 6.257812 -7.40625 C 5.929688 -6.941406 7.648438 -6.585938 8.167969 -7.132812 C 9.972656 -8.6875 9.671875 -11.53125 6.285156 -11.585938 C 2.730469 -11.640625 0.0273438 -8.085938 -0.273438 -4.808594 C -0.519531 -2.296875 0.820312 0.0273438 3.496094 0.21875 L 2.675781 1.667969 C 2.40625 2.132812 2.730469 2.378906 3.113281 2.324219 C 4.316406 2.214844 4.5625 3.003906 4.234375 3.660156 C 3.878906 4.398438 2.867188 4.808594 1.503906 3.960938 C 1.039062 3.6875 0.628906 4.671875 0.957031 4.917969 C 3.085938 6.285156 4.972656 5.492188 5.65625 4.261719 C 6.367188 3.058594 5.957031 1.585938 4.042969 1.421875 L 4.808594 0.164062 C 6.96875 -0.0546875 9.507812 -1.3125 11.367188 -5.792969 C 11.53125 -6.148438 10.65625 -6.613281 10.546875 -6.3125 Z M 10.546875 -6.3125 "/></g></g></g><g fill="#004aad" fill-opacity="1"><g transform="translate(311.416265, 54.387988)"><g><path d="M 8.878906 -13.550781 C 9.863281 -13.523438 10.628906 -14.207031 10.929688 -14.890625 C 11.121094 -15.300781 10.328125 -15.957031 10.054688 -15.601562 C 9.753906 -15.191406 9.453125 -14.945312 8.960938 -14.972656 C 8.058594 -15 7.515625 -15.902344 6.367188 -15.929688 C 5.300781 -15.929688 4.617188 -15.191406 4.289062 -14.507812 C 4.070312 -14.125 5 -13.496094 5.21875 -13.796875 C 5.574219 -14.261719 5.847656 -14.507812 6.285156 -14.507812 C 7.132812 -14.480469 7.8125 -13.578125 8.878906 -13.550781 Z M 5.984375 -11.503906 C 2.785156 -10.957031 -0.0273438 -7.566406 -0.601562 -4.289062 C -1.09375 -1.53125 0.0273438 0.300781 2.160156 0.246094 C 4.234375 0.191406 5.410156 -1.53125 6.449219 -3.25 C 6.039062 -1.203125 6.859375 0.0546875 8.085938 0.0546875 C 10.628906 0.0546875 12.59375 -2.867188 13.90625 -5.792969 C 14.070312 -6.175781 13.167969 -6.585938 13.058594 -6.285156 C 11.996094 -3.605469 10.082031 -1.476562 8.960938 -1.476562 C 8.304688 -1.476562 8.195312 -2.132812 8.414062 -3.386719 C 8.6875 -4.917969 9.316406 -7.023438 9.644531 -8.222656 C 9.671875 -8.769531 7.949219 -9.261719 7.648438 -8.632812 C 6.640625 -4.289062 3.441406 -0.246094 2.078125 -1.640625 C 1.339844 -2.40625 1.558594 -4.644531 2.566406 -6.503906 C 3.496094 -8.304688 4.972656 -9.671875 6.503906 -9.945312 C 7.675781 -10.164062 9.152344 -9.78125 10.300781 -8.90625 C 10.683594 -8.605469 11.695312 -9.699219 11.421875 -10.054688 C 9.972656 -11.53125 7.675781 -11.804688 5.984375 -11.503906 Z M 5.984375 -11.503906 "/></g></g></g><g fill="#004aad" fill-opacity="1"><g transform="translate(324.828694, 54.387988)"><g><path d="M 6.367188 -11.613281 C 3.195312 -11.503906 0.382812 -8.742188 -0.246094 -5.082031 C -0.957031 -1.121094 1.09375 0.246094 3.386719 0.246094 C 5.164062 0.246094 6.613281 -0.492188 7.757812 -1.75 C 9.78125 -1.230469 12.050781 -1.804688 13.742188 -5.792969 C 13.90625 -6.175781 13.03125 -6.585938 12.894531 -6.3125 C 11.613281 -3.085938 10 -2.566406 8.605469 -2.703125 C 10.820312 -6.367188 11.066406 -11.75 6.367188 -11.613281 Z M 6.148438 -10 C 8.578125 -10.136719 8.195312 -6.695312 6.941406 -4.015625 C 6.285156 -4.289062 5.519531 -3.359375 6.09375 -2.566406 C 5.4375 -1.832031 4.589844 -1.339844 3.742188 -1.339844 C 1.96875 -1.339844 1.804688 -3.25 2.078125 -5 C 2.433594 -7.160156 4.179688 -9.890625 6.148438 -10 Z M 6.148438 -10 "/></g></g></g></svg>